<?xml version="1.0" encoding="UTF-8" standalone="no"?>
<!-- Created with Inkscape (http://www.inkscape.org/) -->

<svg
   xmlns:dc="http://purl.org/dc/elements/1.1/"
   xmlns:cc="http://creativecommons.org/ns#"
   xmlns:rdf="http://www.w3.org/1999/02/22-rdf-syntax-ns#"
   xmlns:svg="http://www.w3.org/2000/svg"
   xmlns="http://www.w3.org/2000/svg"
   xmlns:sodipodi="http://sodipodi.sourceforge.net/DTD/sodipodi-0.dtd"
   xmlns:inkscape="http://www.inkscape.org/namespaces/inkscape"
   width="108.09804mm"
   height="43.238171mm"
   viewBox="0 0 108.09804 43.238171"
   version="1.1"
   id="svg3225"
   inkscape:version="0.92.4 (5da689c313, 2019-01-14)"
   sodipodi:docname="eScience-logo.svg"
   inkscape:export-filename="C:\Users\mmonavar\Documents\eScience-logo.png"
   inkscape:export-xdpi="140"
   inkscape:export-ydpi="140">
  <defs
     id="defs3219" />
  <sodipodi:namedview
     id="base"
     pagecolor="#ffffff"
     bordercolor="#666666"
     borderopacity="1.0"
     inkscape:pageopacity="0.0"
     inkscape:pageshadow="2"
     inkscape:zoom="0.98994949"
     inkscape:cx="56.808635"
     inkscape:cy="-33.089885"
     inkscape:document-units="mm"
     inkscape:current-layer="g4380"
     showgrid="false"
     fit-margin-top="1"
     fit-margin-left="1"
     fit-margin-right="1"
     fit-margin-bottom="1"
     inkscape:window-width="1920"
     inkscape:window-height="986"
     inkscape:window-x="-11"
     inkscape:window-y="1609"
     inkscape:window-maximized="1" />
  <metadata
     id="metadata3222">
    <rdf:RDF>
      <cc:Work
         rdf:about="">
        <dc:format>image/svg+xml</dc:format>
        <dc:type
           rdf:resource="http://purl.org/dc/dcmitype/StillImage" />
        <dc:title />
      </cc:Work>
    </rdf:RDF>
  </metadata>
  <g
     inkscape:label="Layer 1"
     inkscape:groupmode="layer"
     id="layer1"
     transform="translate(196.92402,-11.553533)">
    <g
       id="g4380"
       transform="matrix(0.26138943,0,0,0.26138943,-385.76418,656.26701)"
       style="stroke-width:3.82570958">
      <path
         transform="matrix(0.26458333,0,0,0.26458333,-1065.1484,-291.52789)"
         inkscape:connector-curvature="0"
         id="path4187"
         d="m 6865.5234,-8205.8516 a 95.753216,95.753216 0 0 0 -68.3964,29.7286 95.753216,95.753216 0 0 0 3.3339,135.375 95.753216,95.753216 0 0 0 60.3477,26.1289 v -73.9766 c -9.7754,-2.5208 -17.0039,-11.4019 -17.0039,-21.9609 0,-12.5178 10.1599,-22.6778 22.6777,-22.6778 12.5178,0 22.6758,10.16 22.6758,22.6778 0,10.5612 -7.2313,19.4442 -17.0098,21.9628 v 73.9571 a 95.753216,95.753216 0 0 0 63.6875,-29.4453 95.753216,95.753216 0 0 0 -3.3339,-135.375 95.753216,95.753216 0 0 0 -66.9786,-26.3946 z"
         style="fill:#0095d1;fill-opacity:1;stroke:none;stroke-width:101.21562195;stroke-miterlimit:4;stroke-dasharray:none;stroke-opacity:1" />
      <path
         transform="matrix(0.26458333,0,0,0.26458333,-1065.1484,-291.52789)"
         inkscape:connector-curvature="0"
         id="path4167"
         d="m 7243.8262,-8008.4375 v -73.0684 c -9.7773,-2.5195 -17.0098,-11.4005 -17.0098,-21.9609 0,-12.5178 10.1599,-22.6758 22.6777,-22.6758 12.5178,0 22.6778,10.158 22.6778,22.6758 0,10.5604 -7.2306,19.4414 -17.0078,21.9609 v 73.0508 a 95.753216,95.753216 0 0 0 63.6836,-29.4433 95.753216,95.753216 0 0 0 -3.3321,-135.375 95.753216,95.753216 0 0 0 -135.375,3.3339 95.753216,95.753216 0 0 0 3.334,135.3731 95.753216,95.753216 0 0 0 60.3516,26.1289 z"
         style="fill:#001e32;fill-opacity:1;stroke:none;stroke-width:101.21562195;stroke-miterlimit:4;stroke-dasharray:none;stroke-opacity:1" />
      <path
         transform="matrix(0.26458333,0,0,0.26458333,-1065.1484,-291.52789)"
         inkscape:connector-curvature="0"
         d="m 7243.8262,-7809.2971 v -73.1054 c -2.3015,-0.5931 -4.4598,-1.5423 -6.418,-2.7793 -1.9821,-1.1885 -3.7994,-2.6822 -5.3633,-4.4649 l -65.2031,32.9688 a 95.753216,95.753216 0 0 0 76.9844,47.3808 z m 11.3379,-191.0369 v 73.1074 c 9.7772,2.5195 17.0078,11.4006 17.0078,21.961 0,0.152 -0.01,0.3018 -0.012,0.4531 0,0.1513 0.012,0.3011 0.012,0.4531 0,10.5604 -7.2306,19.4415 -17.0078,21.961 v 73.1113 a 95.753216,95.753216 0 0 0 90.0547,-97.8828 95.753216,95.753216 0 0 0 -90.0547,-93.1641 z m -93.4786,133.5645 65.2481,-32.9883 c -1.2997,-5.9256 -0.1325,-12.0643 3.0488,-17.0567 3.0202,-5.0886 7.9715,-8.8988 13.8438,-10.4121 v -73.1113 a 95.753216,95.753216 0 0 0 -90.0567,97.8828 95.753216,95.753216 0 0 0 7.916,35.6856 z"
         style="fill:#8c1416;fill-opacity:1;stroke:none;stroke-width:101.21562195;stroke-miterlimit:4;stroke-dasharray:none;stroke-opacity:1"
         id="path4159" />
      <path
         transform="matrix(0.26458333,0,0,0.26458333,-1065.1484,-291.52789)"
         inkscape:connector-curvature="0"
         d="m 7145.7988,-7846.0373 -65.5703,33.1543 c 0.285,1.4349 0.4375,2.9174 0.4375,4.4355 0,4.498 -1.3166,8.6879 -3.5781,12.2149 -2.127,3.5995 -5.268,6.6565 -9.2734,8.6816 -11.1712,5.6482 -24.8208,1.1653 -30.4688,-10.0058 -3.746,-7.4093 -3.0317,-15.9072 1.1309,-22.4395 3.0201,-5.0887 7.9694,-8.8989 13.8418,-10.4121 v -73.1113 a 95.753216,95.753216 0 0 0 -90.0547,97.8828 95.753216,95.753216 0 0 0 98.082,93.3672 95.753216,95.753216 0 0 0 93.3672,-98.0821 95.753216,95.753216 0 0 0 -7.9141,-35.6855 z m -82.1426,-57.4725 v 73.1036 c 4.6099,1.1873 8.6478,3.7932 11.6348,7.3183 l 65.3496,-33.041 a 95.753216,95.753216 0 0 0 -76.9844,-47.3809 z"
         style="fill:#8c1416;fill-opacity:1;stroke:none;stroke-width:101.21562195;stroke-miterlimit:4;stroke-dasharray:none;stroke-opacity:1"
         id="path4135" />
      <path
         transform="matrix(0.26458333,0,0,0.26458333,-1065.1484,-291.52789)"
         inkscape:connector-curvature="0"
         d="m 7052.3184,-7912.8537 v -73.2656 c -4.4592,-1.0676 -8.5795,-3.467 -11.711,-7.0039 l -65.0586,33.2382 a 95.753216,95.753216 0 0 0 76.7696,47.0313 z m -81.9668,-57.1072 65.0976,-33.2579 c -1.3286,-5.9368 -0.1766,-12.0998 3.0039,-17.1132 3.947,-6.6808 11.2188,-11.168 19.5352,-11.168 12.5178,0 22.6777,10.1599 22.6777,22.6777 0,4.4716 -1.3019,8.6383 -3.539,12.1524 -2.1117,3.6002 -5.2348,6.6626 -9.2247,8.7011 -1.3827,0.7065 -2.8057,1.2567 -4.2461,1.6583 v 73.4667 a 95.753216,95.753216 0 0 0 90.0567,-97.8828 95.753216,95.753216 0 0 0 -98.082,-93.3672 95.753216,95.753216 0 0 0 -93.3672,98.0821 95.753216,95.753216 0 0 0 8.0879,36.0508 z"
         style="fill:#00556e;fill-opacity:1;stroke:none;stroke-width:101.21562195;stroke-miterlimit:4;stroke-dasharray:none;stroke-opacity:1"
         id="path4123" />
      <path
         transform="matrix(0.26458333,0,0,0.26458333,-1065.1484,-291.52789)"
         inkscape:connector-curvature="0"
         id="path4107"
         d="m 6872.1484,-7806.502 v 73.0665 c 9.7785,2.5186 17.0098,11.4016 17.0098,21.9628 0,12.5178 -10.158,22.6778 -22.6758,22.6778 -12.5178,0 -22.6777,-10.16 -22.6777,-22.6778 0,-10.559 7.2285,-19.4401 17.0039,-21.9609 v -73.0488 a 95.753216,95.753216 0 0 0 -63.6816,29.4433 95.753216,95.753216 0 0 0 3.3339,135.375 95.753216,95.753216 0 0 0 135.375,-3.3339 95.753216,95.753216 0 0 0 -3.3339,-135.375 95.753216,95.753216 0 0 0 -60.3536,-26.129 z"
         style="fill:#001e32;fill-opacity:1;stroke:none;stroke-width:101.21562195;stroke-miterlimit:4;stroke-dasharray:none;stroke-opacity:1" />
      <path
         transform="matrix(0.26458333,0,0,0.26458333,-1065.1484,-291.52789)"
         inkscape:connector-curvature="0"
         d="m 6860.8086,-7815.0039 v -73.2676 c -6.2249,-1.4914 -11.7873,-5.5859 -14.9258,-11.7285 -3.787,-7.4123 -3.0947,-15.9376 1.0684,-22.4941 7e-4,0 0,0 0,0 2.0977,-3.3023 5.0731,-6.1061 8.8067,-8.0137 1.6389,-0.8374 3.3341,-1.4507 5.0488,-1.8613 v -73.6758 a 95.753216,95.753216 0 0 0 -90.0508,97.8808 95.753216,95.753216 0 0 0 90.0508,93.1641 z m 93.3105,-133.9299 -65.9062,33.6699 c 2.205,9.8532 -2.4142,20.3318 -11.8184,25.1367 -1.3833,0.7068 -2.8051,1.2566 -4.2461,1.6582 V -7815 a 95.753216,95.753216 0 0 0 90.0586,-97.8828 95.753216,95.753216 0 0 0 -8.0879,-36.0488 z m -81.9707,-57.1111 v 73.8828 c 4.1489,1.1543 7.9639,3.4775 10.9063,6.8008 l 65.8672,-33.6524 a 95.753216,95.753216 0 0 0 -76.7735,-47.0312 z"
         style="fill:#00556e;fill-opacity:1;stroke:none;stroke-width:101.21562195;stroke-miterlimit:4;stroke-dasharray:none;stroke-opacity:1"
         id="path4103" />
      <g
         aria-label="Science
"
         style="font-style:normal;font-weight:normal;font-size:66.4329071px;line-height:1.25;font-family:sans-serif;letter-spacing:0px;word-spacing:0px;fill:#001e32;fill-opacity:1;stroke:none;stroke-width:1.01221776"
         id="text10563">
        <path
           d="m 916.07197,-2322.0034 q 0,4.3142 -2.23822,7.7527 -2.20578,3.4384 -6.48758,5.3847 -4.28181,1.9462 -10.15308,1.9462 -7.03903,0 -11.61278,-2.6599 -3.2438,-1.9138 -5.28739,-5.0927 -2.01115,-3.2114 -2.01115,-6.2281 0,-1.7517 1.2002,-2.9843 1.23264,-1.2651 3.11404,-1.2651 1.52459,0 2.5626,0.9732 1.07045,0.9731 1.81653,2.8869 0.90826,2.2707 1.94627,3.7953 1.07046,1.5245 2.98429,2.5301 1.91384,0.9732 5.02789,0.9732 4.2818,0 6.94172,-1.9788 2.69234,-2.0111 2.69234,-4.9954 0,-2.368 -1.4597,-3.8277 -1.42727,-1.4921 -3.73037,-2.2706 -2.27065,-0.7785 -6.09833,-1.6544 -5.12519,-1.2002 -8.59605,-2.7896 -3.43843,-1.6219 -5.48202,-4.3791 -2.01115,-2.7897 -2.01115,-6.9093 0,-3.925 2.14091,-6.9742 2.1409,-3.0492 6.19564,-4.6711 4.05475,-1.6543 9.53676,-1.6543 4.37912,0 7.55804,1.1029 3.21135,1.0705 5.31982,2.887 2.10847,1.7841 3.08161,3.7628 0.97313,1.9787 0.97313,3.8601 0,1.7192 -1.23264,3.114 -1.2002,1.3624 -3.01673,1.3624 -1.65433,0 -2.53016,-0.8109 -0.84338,-0.8434 -1.84896,-2.7248 -1.29752,-2.6924 -3.11404,-4.1845 -1.81653,-1.5246 -5.83883,-1.5246 -3.73036,0 -6.03346,1.6544 -2.27065,1.6219 -2.27065,3.9249 0,1.4273 0.77851,2.4653 0.77851,1.038 2.1409,1.7841 1.36239,0.7461 2.75723,1.1678 1.39483,0.4217 4.60618,1.2326 4.02231,0.9407 7.2661,2.0761 3.27623,1.1353 5.54689,2.7572 2.30309,1.6219 3.56817,4.1196 1.29752,2.4653 1.29752,6.0659 z"
           style="font-style:normal;font-variant:normal;font-weight:normal;font-stretch:normal;font-family:'Arial Rounded MT Bold';-inkscape-font-specification:'Arial Rounded MT Bold, ';fill:#001e32;fill-opacity:1;stroke-width:1.01221776"
           id="path833"
           inkscape:connector-curvature="0" />
        <path
           d="m 955.45164,-2317.8838 q 0,1.6543 -1.00558,3.5357 -0.97314,1.8814 -3.01673,3.6007 -2.01115,1.6867 -5.09276,2.7247 -3.0816,1.0381 -6.94172,1.0381 -8.2068,0 -12.81298,-4.7684 -4.60619,-4.8008 -4.60619,-12.8454 0,-5.4496 2.10846,-9.6341 2.10847,-4.1845 6.09834,-6.4552 3.98987,-2.3031 9.53675,-2.3031 3.43843,0 6.29296,1.0056 2.88698,1.0056 4.8657,2.5951 2.01115,1.5894 3.04916,3.4059 1.07045,1.7841 1.07045,3.3411 0,1.5895 -1.2002,2.6924 -1.16777,1.1029 -2.85454,1.1029 -1.10289,0 -1.84896,-0.5515 -0.71364,-0.5838 -1.6219,-1.8489 -1.6219,-2.4653 -3.40598,-3.6979 -1.75165,-1.2327 -4.47644,-1.2327 -3.92499,0 -6.3254,3.0816 -2.40041,3.0492 -2.40041,8.369 0,2.4977 0.61633,4.6062 0.61632,2.076 1.78408,3.5682 1.16777,1.4597 2.8221,2.2382 1.65434,0.7461 3.63305,0.7461 2.65991,0 4.54132,-1.2327 1.91383,-1.2326 3.37354,-3.7628 0.81095,-1.4921 1.75165,-2.3355 0.9407,-0.8434 2.30309,-0.8434 1.6219,0 2.69235,1.2326 1.07046,1.2327 1.07046,2.6275 z"
           style="font-style:normal;font-variant:normal;font-weight:normal;font-stretch:normal;font-family:'Arial Rounded MT Bold';-inkscape-font-specification:'Arial Rounded MT Bold, ';fill:#001e32;fill-opacity:1;stroke-width:1.01221776"
           id="path835"
           inkscape:connector-curvature="0" />
        <path
           d="m 971.99498,-2337.898 v 25.5935 q 0,2.6599 -1.26508,4.0223 -1.26508,1.3624 -3.21135,1.3624 -1.94628,0 -3.17892,-1.3948 -1.20021,-1.3948 -1.20021,-3.9899 v -25.334 q 0,-2.6275 1.20021,-3.9574 1.23264,-1.33 3.17892,-1.33 1.94627,0 3.21135,1.33 1.26508,1.3299 1.26508,3.6979 z m -4.37912,-9.1475 q -1.84896,0 -3.17892,-1.1353 -1.29752,-1.1354 -1.29752,-3.2114 0,-1.8814 1.32996,-3.0816 1.36239,-1.2326 3.14648,-1.2326 1.71921,0 3.04917,1.1029 1.32995,1.1028 1.32995,3.2113 0,2.0436 -1.29752,3.2114 -1.29751,1.1353 -3.0816,1.1353 z"
           style="font-style:normal;font-variant:normal;font-weight:normal;font-stretch:normal;font-family:'Arial Rounded MT Bold';-inkscape-font-specification:'Arial Rounded MT Bold, ';fill:#001e32;fill-opacity:1;stroke-width:1.01221776"
           id="path837"
           inkscape:connector-curvature="0" />
        <path
           d="m 1005.8926,-2322.7495 h -17.32183 q 0.0324,3.0167 1.20021,5.3198 1.2002,2.3031 3.14648,3.4709 1.97871,1.1678 4.34668,1.1678 1.58946,0 2.88696,-0.3568 1.33,-0.3893 2.5626,-1.1678 1.2327,-0.811 2.2707,-1.7192 1.038,-0.9083 2.6923,-2.4653 0.6812,-0.5839 1.9463,-0.5839 1.3624,0 2.2058,0.7461 0.8434,0.7461 0.8434,2.1084 0,1.2002 -0.9407,2.8221 -0.9407,1.5895 -2.8546,3.0817 -1.8814,1.4597 -4.7684,2.4328 -2.8545,0.9731 -6.58485,0.9731 -8.53118,0 -13.26712,-4.8657 -4.73594,-4.8656 -4.73594,-13.2022 0,-3.925 1.16776,-7.2661 1.16777,-3.3735 3.40599,-5.774 2.23822,-2.4004 5.51445,-3.6654 3.27623,-1.2976 7.2661,-1.2976 5.19011,0 8.88801,2.2058 3.7303,2.1734 5.5793,5.6442 1.849,3.4709 1.849,7.0715 0,3.3411 -1.9139,4.3467 -1.9138,0.9731 -5.3847,0.9731 z m -17.32183,-5.0279 h 16.05683 q -0.3244,-4.5413 -2.4653,-6.7795 -2.1085,-2.2706 -5.57935,-2.2706 -3.30867,0 -5.44958,2.303 -2.10846,2.2707 -2.5626,6.7471 z"
           style="font-style:normal;font-variant:normal;font-weight:normal;font-stretch:normal;font-family:'Arial Rounded MT Bold';-inkscape-font-specification:'Arial Rounded MT Bold, ';fill:#001e32;fill-opacity:1;stroke-width:1.01221776"
           id="path839"
           inkscape:connector-curvature="0" />
        <path
           d="m 1028.6641,-2338.0278 v 1.0705 q 2.3355,-3.0816 5.0927,-4.5089 2.7897,-1.4597 6.3903,-1.4597 3.5033,0 6.2605,1.5246 2.7573,1.5246 4.1196,4.3142 0.8759,1.6219 1.1354,3.5033 0.2595,1.8814 0.2595,4.8009 v 16.4784 q 0,2.6599 -1.2327,4.0223 -1.2002,1.3624 -3.1464,1.3624 -1.9788,0 -3.2114,-1.3948 -1.2326,-1.3948 -1.2326,-3.9899 v -14.7592 q 0,-4.3791 -1.2327,-6.6822 -1.2002,-2.3356 -4.8332,-2.3356 -2.368,0 -4.3143,1.4273 -1.9463,1.3948 -2.8545,3.8601 -0.6488,1.9787 -0.6488,7.3959 v 11.0937 q 0,2.6924 -1.2651,4.0548 -1.2326,1.3299 -3.2113,1.3299 -1.9139,0 -3.1465,-1.3948 -1.2326,-1.3948 -1.2326,-3.9899 v -25.5935 q 0,-2.5302 1.1029,-3.7628 1.1028,-1.2651 3.0167,-1.2651 1.1677,0 2.1084,0.5515 0.9407,0.5514 1.4922,1.6543 0.5839,1.1029 0.5839,2.6923 z"
           style="font-style:normal;font-variant:normal;font-weight:normal;font-stretch:normal;font-family:'Arial Rounded MT Bold';-inkscape-font-specification:'Arial Rounded MT Bold, ';fill:#001e32;fill-opacity:1;stroke-width:1.01221776"
           id="path841"
           inkscape:connector-curvature="0" />
        <path
           d="m 1092.4695,-2317.8838 q 0,1.6543 -1.0056,3.5357 -0.9731,1.8814 -3.0167,3.6007 -2.0112,1.6867 -5.0928,2.7247 -3.0816,1.0381 -6.9417,1.0381 -8.2068,0 -12.813,-4.7684 -4.6062,-4.8008 -4.6062,-12.8454 0,-5.4496 2.1085,-9.6341 2.1085,-4.1845 6.0983,-6.4552 3.9899,-2.3031 9.5368,-2.3031 3.4384,0 6.293,1.0056 2.8869,1.0056 4.8657,2.5951 2.0111,1.5894 3.0491,3.4059 1.0705,1.7841 1.0705,3.3411 0,1.5895 -1.2002,2.6924 -1.1678,1.1029 -2.8546,1.1029 -1.1029,0 -1.8489,-0.5515 -0.7137,-0.5838 -1.6219,-1.8489 -1.6219,-2.4653 -3.406,-3.6979 -1.7517,-1.2327 -4.4765,-1.2327 -3.9249,0 -6.3253,3.0816 -2.4005,3.0492 -2.4005,8.369 0,2.4977 0.6164,4.6062 0.6163,2.076 1.7841,3.5682 1.1677,1.4597 2.8221,2.2382 1.6543,0.7461 3.633,0.7461 2.6599,0 4.5413,-1.2327 1.9139,-1.2326 3.3736,-3.7628 0.8109,-1.4921 1.7516,-2.3355 0.9407,-0.8434 2.3031,-0.8434 1.6219,0 2.6924,1.2326 1.0704,1.2327 1.0704,2.6275 z"
           style="font-style:normal;font-variant:normal;font-weight:normal;font-stretch:normal;font-family:'Arial Rounded MT Bold';-inkscape-font-specification:'Arial Rounded MT Bold, ';fill:#001e32;fill-opacity:1;stroke-width:1.01221776"
           id="path843"
           inkscape:connector-curvature="0" />
        <path
           d="m 1124.875,-2322.7495 h -17.3219 q 0.033,3.0167 1.2002,5.3198 1.2003,2.3031 3.1465,3.4709 1.9787,1.1678 4.3467,1.1678 1.5895,0 2.887,-0.3568 1.3299,-0.3893 2.5626,-1.1678 1.2326,-0.811 2.2706,-1.7192 1.0381,-0.9083 2.6924,-2.4653 0.6812,-0.5839 1.9463,-0.5839 1.3624,0 2.2057,0.7461 0.8434,0.7461 0.8434,2.1084 0,1.2002 -0.9407,2.8221 -0.9407,1.5895 -2.8545,3.0817 -1.8814,1.4597 -4.7684,2.4328 -2.8545,0.9731 -6.5849,0.9731 -8.5312,0 -13.2671,-4.8657 -4.7359,-4.8656 -4.7359,-13.2022 0,-3.925 1.1677,-7.2661 1.1678,-3.3735 3.406,-5.774 2.2382,-2.4004 5.5145,-3.6654 3.2762,-1.2976 7.2661,-1.2976 5.19,0 8.888,2.2058 3.7303,2.1734 5.5793,5.6442 1.8489,3.4709 1.8489,7.0715 0,3.3411 -1.9138,4.3467 -1.9138,0.9731 -5.3847,0.9731 z m -17.3219,-5.0279 h 16.0568 q -0.3244,-4.5413 -2.4653,-6.7795 -2.1084,-2.2706 -5.5793,-2.2706 -3.3087,0 -5.4496,2.303 -2.1084,2.2707 -2.5626,6.7471 z"
           style="font-style:normal;font-variant:normal;font-weight:normal;font-stretch:normal;font-family:'Arial Rounded MT Bold';-inkscape-font-specification:'Arial Rounded MT Bold, ';fill:#001e32;fill-opacity:1;stroke-width:1.01221776"
           id="path845"
           inkscape:connector-curvature="0" />
      </g>
      <path
         transform="matrix(0.26458333,0,0,0.26458333,-1065.1484,-291.52789)"
         inkscape:connector-curvature="0"
         d="m 7250.3535,-7748.9609 c -8.3368,0 -15.2032,2.902 -20.5976,8.705 -5.3127,5.7215 -8.5413,14.2229 -9.6856,25.502 h 60.6875 c -0.8173,-11.4427 -3.9239,-19.9854 -9.3183,-25.625 -5.3127,-5.7215 -12.3405,-8.582 -21.086,-8.582 z m 1.1035,-23.293 c 13.0774,0 24.2742,2.778 33.5918,8.3359 9.3994,5.4761 16.4291,12.5884 21.0879,21.334 4.6588,8.7453 6.9863,17.6539 6.9863,26.7266 0,8.4185 -2.4101,13.8942 -7.2324,16.4277 -4.8222,2.4522 -11.6061,3.6777 -20.3515,3.6777 h -65.4688 c 0.082,7.6012 1.5946,14.3044 4.5371,20.1075 3.0241,5.8031 6.9866,10.1747 11.8906,13.1172 4.9858,2.9422 10.4632,4.414 16.4297,4.414 4.005,0 7.6408,-0.4506 10.9102,-1.3496 3.351,-0.9807 6.5796,-2.4503 9.6855,-4.4121 3.1059,-2.0432 5.9666,-4.2094 8.5821,-6.498 2.6155,-2.2884 6.0074,-5.395 10.1757,-9.3184 1.7165,-1.471 4.1699,-2.207 7.3575,-2.207 3.4328,0 6.2108,0.9406 8.3359,2.8203 2.1251,1.8799 3.1875,4.5359 3.1875,7.9687 0,3.0242 -1.1844,6.5794 -3.5547,10.666 -2.3702,4.0051 -5.9668,7.8889 -10.789,11.6485 -4.7406,3.678 -10.7473,6.7412 -18.0215,9.1933 -7.1926,2.4519 -15.4893,3.6797 -24.8887,3.6797 -21.4959,0 -38.2095,-6.1306 -50.1426,-18.3906 -11.9331,-12.26 -17.9004,-28.8931 -17.9004,-49.8984 0,-9.8898 1.4717,-19.0444 4.4141,-27.4629 2.9424,-8.5004 7.2334,-15.774 12.873,-21.8223 5.6396,-6.0482 12.5867,-10.6659 20.8418,-13.8535 8.2551,-3.2693 17.4097,-4.9043 27.4629,-4.9043 z m -2.9218,-28.8262 a 95.753216,95.753216 0 0 0 -68.3946,29.7285 95.753216,95.753216 0 0 0 3.334,135.375 95.753216,95.753216 0 0 0 135.3731,-3.3339 95.753216,95.753216 0 0 0 -3.3321,-135.375 95.753216,95.753216 0 0 0 -66.9804,-26.3946 z"
         style="fill:#dc2328;fill-opacity:1;stroke:none;stroke-width:101.21562195;stroke-miterlimit:4;stroke-dasharray:none;stroke-opacity:1"
         id="path10541" />
    </g>
    <g
       style="stroke-width:3.82570958"
       transform="matrix(0.26138943,0,0,0.26138943,-385.76418,656.26701)"
       id="g4516">
      <path
         style="fill:#0095d1;fill-opacity:1;stroke:none;stroke-width:101.21562195;stroke-miterlimit:4;stroke-dasharray:none;stroke-opacity:1"
         d="m 6865.5234,-8205.8516 a 95.753216,95.753216 0 0 0 -68.3964,29.7286 95.753216,95.753216 0 0 0 3.3339,135.375 95.753216,95.753216 0 0 0 60.3477,26.1289 v -73.9766 c -9.7754,-2.5208 -17.0039,-11.4019 -17.0039,-21.9609 0,-12.5178 10.1599,-22.6778 22.6777,-22.6778 12.5178,0 22.6758,10.16 22.6758,22.6778 0,10.5612 -7.2313,19.4442 -17.0098,21.9628 v 73.9571 a 95.753216,95.753216 0 0 0 63.6875,-29.4453 95.753216,95.753216 0 0 0 -3.3339,-135.375 95.753216,95.753216 0 0 0 -66.9786,-26.3946 z"
         id="path4494"
         inkscape:connector-curvature="0"
         transform="matrix(0.26458333,0,0,0.26458333,-1065.1484,-291.52789)" />
      <path
         style="fill:#001e32;fill-opacity:1;stroke:none;stroke-width:101.21562195;stroke-miterlimit:4;stroke-dasharray:none;stroke-opacity:1"
         d="m 7243.8262,-8008.4375 v -73.0684 c -9.7773,-2.5195 -17.0098,-11.4005 -17.0098,-21.9609 0,-12.5178 10.1599,-22.6758 22.6777,-22.6758 12.5178,0 22.6778,10.158 22.6778,22.6758 0,10.5604 -7.2306,19.4414 -17.0078,21.9609 v 73.0508 a 95.753216,95.753216 0 0 0 63.6836,-29.4433 95.753216,95.753216 0 0 0 -3.3321,-135.375 95.753216,95.753216 0 0 0 -135.375,3.3339 95.753216,95.753216 0 0 0 3.334,135.3731 95.753216,95.753216 0 0 0 60.3516,26.1289 z"
         id="path4496"
         inkscape:connector-curvature="0"
         transform="matrix(0.26458333,0,0,0.26458333,-1065.1484,-291.52789)" />
      <path
         id="path4498"
         style="fill:#8c1416;fill-opacity:1;stroke:none;stroke-width:101.21562195;stroke-miterlimit:4;stroke-dasharray:none;stroke-opacity:1"
         d="m 7243.8262,-7809.2971 v -73.1054 c -2.3015,-0.5931 -4.4598,-1.5423 -6.418,-2.7793 -1.9821,-1.1885 -3.7994,-2.6822 -5.3633,-4.4649 l -65.2031,32.9688 a 95.753216,95.753216 0 0 0 76.9844,47.3808 z m 11.3379,-191.0369 v 73.1074 c 9.7772,2.5195 17.0078,11.4006 17.0078,21.961 0,0.152 -0.01,0.3018 -0.012,0.4531 0,0.1513 0.012,0.3011 0.012,0.4531 0,10.5604 -7.2306,19.4415 -17.0078,21.961 v 73.1113 a 95.753216,95.753216 0 0 0 90.0547,-97.8828 95.753216,95.753216 0 0 0 -90.0547,-93.1641 z m -93.4786,133.5645 65.2481,-32.9883 c -1.2997,-5.9256 -0.1325,-12.0643 3.0488,-17.0567 3.0202,-5.0886 7.9715,-8.8988 13.8438,-10.4121 v -73.1113 a 95.753216,95.753216 0 0 0 -90.0567,97.8828 95.753216,95.753216 0 0 0 7.916,35.6856 z"
         inkscape:connector-curvature="0"
         transform="matrix(0.26458333,0,0,0.26458333,-1065.1484,-291.52789)" />
      <path
         id="path4500"
         style="fill:#8c1416;fill-opacity:1;stroke:none;stroke-width:101.21562195;stroke-miterlimit:4;stroke-dasharray:none;stroke-opacity:1"
         d="m 7145.7988,-7846.0373 -65.5703,33.1543 c 0.285,1.4349 0.4375,2.9174 0.4375,4.4355 0,4.498 -1.3166,8.6879 -3.5781,12.2149 -2.127,3.5995 -5.268,6.6565 -9.2734,8.6816 -11.1712,5.6482 -24.8208,1.1653 -30.4688,-10.0058 -3.746,-7.4093 -3.0317,-15.9072 1.1309,-22.4395 3.0201,-5.0887 7.9694,-8.8989 13.8418,-10.4121 v -73.1113 a 95.753216,95.753216 0 0 0 -90.0547,97.8828 95.753216,95.753216 0 0 0 98.082,93.3672 95.753216,95.753216 0 0 0 93.3672,-98.0821 95.753216,95.753216 0 0 0 -7.9141,-35.6855 z m -82.1426,-57.4725 v 73.1036 c 4.6099,1.1873 8.6478,3.7932 11.6348,7.3183 l 65.3496,-33.041 a 95.753216,95.753216 0 0 0 -76.9844,-47.3809 z"
         inkscape:connector-curvature="0"
         transform="matrix(0.26458333,0,0,0.26458333,-1065.1484,-291.52789)" />
      <path
         id="path4502"
         style="fill:#00556e;fill-opacity:1;stroke:none;stroke-width:101.21562195;stroke-miterlimit:4;stroke-dasharray:none;stroke-opacity:1"
         d="m 7052.3184,-7912.8537 v -73.2656 c -4.4592,-1.0676 -8.5795,-3.467 -11.711,-7.0039 l -65.0586,33.2382 a 95.753216,95.753216 0 0 0 76.7696,47.0313 z m -81.9668,-57.1072 65.0976,-33.2579 c -1.3286,-5.9368 -0.1766,-12.0998 3.0039,-17.1132 3.947,-6.6808 11.2188,-11.168 19.5352,-11.168 12.5178,0 22.6777,10.1599 22.6777,22.6777 0,4.4716 -1.3019,8.6383 -3.539,12.1524 -2.1117,3.6002 -5.2348,6.6626 -9.2247,8.7011 -1.3827,0.7065 -2.8057,1.2567 -4.2461,1.6583 v 73.4667 a 95.753216,95.753216 0 0 0 90.0567,-97.8828 95.753216,95.753216 0 0 0 -98.082,-93.3672 95.753216,95.753216 0 0 0 -93.3672,98.0821 95.753216,95.753216 0 0 0 8.0879,36.0508 z"
         inkscape:connector-curvature="0"
         transform="matrix(0.26458333,0,0,0.26458333,-1065.1484,-291.52789)" />
      <path
         style="fill:#001e32;fill-opacity:1;stroke:none;stroke-width:101.21562195;stroke-miterlimit:4;stroke-dasharray:none;stroke-opacity:1"
         d="m 6872.1484,-7806.502 v 73.0665 c 9.7785,2.5186 17.0098,11.4016 17.0098,21.9628 0,12.5178 -10.158,22.6778 -22.6758,22.6778 -12.5178,0 -22.6777,-10.16 -22.6777,-22.6778 0,-10.559 7.2285,-19.4401 17.0039,-21.9609 v -73.0488 a 95.753216,95.753216 0 0 0 -63.6816,29.4433 95.753216,95.753216 0 0 0 3.3339,135.375 95.753216,95.753216 0 0 0 135.375,-3.3339 95.753216,95.753216 0 0 0 -3.3339,-135.375 95.753216,95.753216 0 0 0 -60.3536,-26.129 z"
         id="path4504"
         inkscape:connector-curvature="0"
         transform="matrix(0.26458333,0,0,0.26458333,-1065.1484,-291.52789)" />
      <path
         id="path4506"
         style="fill:#00556e;fill-opacity:1;stroke:none;stroke-width:101.21562195;stroke-miterlimit:4;stroke-dasharray:none;stroke-opacity:1"
         d="m 6860.8086,-7815.0039 v -73.2676 c -6.2249,-1.4914 -11.7873,-5.5859 -14.9258,-11.7285 -3.787,-7.4123 -3.0947,-15.9376 1.0684,-22.4941 7e-4,0 0,0 0,0 2.0977,-3.3023 5.0731,-6.1061 8.8067,-8.0137 1.6389,-0.8374 3.3341,-1.4507 5.0488,-1.8613 v -73.6758 a 95.753216,95.753216 0 0 0 -90.0508,97.8808 95.753216,95.753216 0 0 0 90.0508,93.1641 z m 93.3105,-133.9299 -65.9062,33.6699 c 2.205,9.8532 -2.4142,20.3318 -11.8184,25.1367 -1.3833,0.7068 -2.8051,1.2566 -4.2461,1.6582 V -7815 a 95.753216,95.753216 0 0 0 90.0586,-97.8828 95.753216,95.753216 0 0 0 -8.0879,-36.0488 z m -81.9707,-57.1111 v 73.8828 c 4.1489,1.1543 7.9639,3.4775 10.9063,6.8008 l 65.8672,-33.6524 a 95.753216,95.753216 0 0 0 -76.7735,-47.0312 z"
         inkscape:connector-curvature="0"
         transform="matrix(0.26458333,0,0,0.26458333,-1065.1484,-291.52789)" />
      <path
         id="path4514"
         style="fill:#dc2328;fill-opacity:1;stroke:none;stroke-width:101.21562195;stroke-miterlimit:4;stroke-dasharray:none;stroke-opacity:1"
         d="m 7250.3535,-7748.9609 c -8.3368,0 -15.2032,2.902 -20.5976,8.705 -5.3127,5.7215 -8.5413,14.2229 -9.6856,25.502 h 60.6875 c -0.8173,-11.4427 -3.9239,-19.9854 -9.3183,-25.625 -5.3127,-5.7215 -12.3405,-8.582 -21.086,-8.582 z m 1.1035,-23.293 c 13.0774,0 24.2742,2.778 33.5918,8.3359 9.3994,5.4761 16.4291,12.5884 21.0879,21.334 4.6588,8.7453 6.9863,17.6539 6.9863,26.7266 0,8.4185 -2.4101,13.8942 -7.2324,16.4277 -4.8222,2.4522 -11.6061,3.6777 -20.3515,3.6777 h -65.4688 c 0.082,7.6012 1.5946,14.3044 4.5371,20.1075 3.0241,5.8031 6.9866,10.1747 11.8906,13.1172 4.9858,2.9422 10.4632,4.414 16.4297,4.414 4.005,0 7.6408,-0.4506 10.9102,-1.3496 3.351,-0.9807 6.5796,-2.4503 9.6855,-4.4121 3.1059,-2.0432 5.9666,-4.2094 8.5821,-6.498 2.6155,-2.2884 6.0074,-5.395 10.1757,-9.3184 1.7165,-1.471 4.1699,-2.207 7.3575,-2.207 3.4328,0 6.2108,0.9406 8.3359,2.8203 2.1251,1.8799 3.1875,4.5359 3.1875,7.9687 0,3.0242 -1.1844,6.5794 -3.5547,10.666 -2.3702,4.0051 -5.9668,7.8889 -10.789,11.6485 -4.7406,3.678 -10.7473,6.7412 -18.0215,9.1933 -7.1926,2.4519 -15.4893,3.6797 -24.8887,3.6797 -21.4959,0 -38.2095,-6.1306 -50.1426,-18.3906 -11.9331,-12.26 -17.9004,-28.8931 -17.9004,-49.8984 0,-9.8898 1.4717,-19.0444 4.4141,-27.4629 2.9424,-8.5004 7.2334,-15.774 12.873,-21.8223 5.6396,-6.0482 12.5867,-10.6659 20.8418,-13.8535 8.2551,-3.2693 17.4097,-4.9043 27.4629,-4.9043 z m -2.9218,-28.8262 a 95.753216,95.753216 0 0 0 -68.3946,29.7285 95.753216,95.753216 0 0 0 3.334,135.375 95.753216,95.753216 0 0 0 135.3731,-3.3339 95.753216,95.753216 0 0 0 -3.3321,-135.375 95.753216,95.753216 0 0 0 -66.9804,-26.3946 z"
         inkscape:connector-curvature="0"
         transform="matrix(0.26458333,0,0,0.26458333,-1065.1484,-291.52789)" />
    </g>
  </g>
</svg>
