<?xml version="1.0" encoding="UTF-8" standalone="no"?>
<!-- Created with Inkscape (http://www.inkscape.org/) -->

<svg
   width="108.09804mm"
   height="43.238171mm"
   viewBox="0 0 108.09804 43.238171"
   version="1.1"
   id="svg3225"
   inkscape:version="1.1.2 (0a00cf5339, 2022-02-04)"
   sodipodi:docname="logo.svg"
   inkscape:export-filename="C:\Users\mmonavar\Documents\eScience-logo.png"
   inkscape:export-xdpi="140"
   inkscape:export-ydpi="140"
   xmlns:inkscape="http://www.inkscape.org/namespaces/inkscape"
   xmlns:sodipodi="http://sodipodi.sourceforge.net/DTD/sodipodi-0.dtd"
   xmlns="http://www.w3.org/2000/svg"
   xmlns:svg="http://www.w3.org/2000/svg"
   xmlns:rdf="http://www.w3.org/1999/02/22-rdf-syntax-ns#"
   xmlns:cc="http://creativecommons.org/ns#"
   xmlns:dc="http://purl.org/dc/elements/1.1/">
  <defs
     id="defs3219" />
  <sodipodi:namedview
     id="base"
     pagecolor="#ffffff"
     bordercolor="#666666"
     borderopacity="1.0"
     inkscape:pageopacity="0"
     inkscape:pageshadow="2"
     inkscape:zoom="2.8"
     inkscape:cx="257.85714"
     inkscape:cy="48.214286"
     inkscape:document-units="mm"
     inkscape:current-layer="text10563-0"
     showgrid="false"
     fit-margin-top="1"
     fit-margin-left="1"
     fit-margin-right="1"
     fit-margin-bottom="1"
     inkscape:window-width="1918"
     inkscape:window-height="1043"
     inkscape:window-x="1"
     inkscape:window-y="18"
     inkscape:window-maximized="0"
     inkscape:pagecheckerboard="false" />
  <metadata
     id="metadata3222">
    <rdf:RDF>
      <cc:Work
         rdf:about="">
        <dc:format>image/svg+xml</dc:format>
        <dc:type
           rdf:resource="http://purl.org/dc/dcmitype/StillImage" />
      </cc:Work>
    </rdf:RDF>
  </metadata>
  <g
     inkscape:label="Layer 1"
     inkscape:groupmode="layer"
     id="layer1"
     transform="translate(196.92402,-11.553533)">
    <circle
       style="fill:#ffffff;stroke-width:0.9525"
       id="path1211-60"
       cx="-162.8118"
       cy="47.130573"
       r="7.1343002" />
    <circle
       style="fill:#ffffff;stroke-width:0.9525"
       id="path1211-7"
       cx="-189.27007"
       cy="46.75272"
       r="7.1343002" />
    <path
       inkscape:connector-curvature="0"
       id="path4187"
       d="m -189.36799,12.553829 a 6.6222244,6.6222244 0 0 0 -4.73024,2.056009 6.6222244,6.6222244 0 0 0 0.23057,9.362439 6.6222244,6.6222244 0 0 0 4.1736,1.807056 v -5.116169 c -0.67606,-0.174336 -1.17598,-0.788547 -1.17598,-1.5188 0,-0.865722 0.70266,-1.568381 1.56838,-1.568381 0.86572,0 1.56824,0.702659 1.56824,1.568381 0,0.730405 -0.50011,1.344747 -1.17639,1.518932 v 5.11482 a 6.6222244,6.6222244 0 0 0 4.40459,-2.036416 6.6222244,6.6222244 0 0 0 -0.23057,-9.362439 6.6222244,6.6222244 0 0 0 -4.6322,-1.825432 z"
       style="fill:#0095d1;fill-opacity:1;stroke:none;stroke-width:7.00003;stroke-miterlimit:4;stroke-dasharray:none;stroke-opacity:1" />
    <path
       inkscape:connector-curvature="0"
       id="path4167"
       d="M -163.20483,26.206848 V 21.15349 c -0.67619,-0.174247 -1.17639,-0.788451 -1.17639,-1.5188 0,-0.865723 0.70265,-1.568243 1.56837,-1.568243 0.86573,0 1.56839,0.70252 1.56839,1.568243 0,0.730349 -0.50007,1.344553 -1.17625,1.5188 v 5.052141 a 6.6222244,6.6222244 0 0 0 4.40431,-2.036277 6.6222244,6.6222244 0 0 0 -0.23045,-9.362439 6.6222244,6.6222244 0 0 0 -9.36243,0.23057 6.6222244,6.6222244 0 0 0 0.23057,9.362307 6.6222244,6.6222244 0 0 0 4.17388,1.807056 z"
       style="fill:#001e32;fill-opacity:1;stroke:none;stroke-width:7.00003;stroke-miterlimit:4;stroke-dasharray:none;stroke-opacity:1" />
    <path
       inkscape:connector-curvature="0"
       d="M -163.20483,39.979257 V 34.92334 c -0.15917,-0.04102 -0.30844,-0.106665 -0.44387,-0.192215 -0.13708,-0.0822 -0.26276,-0.185499 -0.37092,-0.308789 l -4.5094,2.280099 a 6.6222244,6.6222244 0 0 0 5.32419,3.276822 z m 0.78412,-13.211976 v 5.056056 c 0.67618,0.174247 1.17625,0.788457 1.17625,1.518807 0,0.01051 -7e-4,0.02087 -8.3e-4,0.03134 0,0.01046 8.3e-4,0.02082 8.3e-4,0.03134 0,0.73035 -0.50007,1.34456 -1.17625,1.518807 v 5.056326 a 6.6222244,6.6222244 0 0 0 6.22812,-6.769505 6.6222244,6.6222244 0 0 0 -6.22812,-6.443163 z m -6.46492,9.237226 4.51252,-2.281448 c -0.0899,-0.40981 -0.009,-0.834358 0.21085,-1.179629 0.20887,-0.351924 0.5513,-0.615435 0.95743,-0.720093 v -5.056326 a 6.6222244,6.6222244 0 0 0 -6.22826,6.769505 6.6222244,6.6222244 0 0 0 0.54746,2.467991 z"
       style="fill:#8c1416;fill-opacity:1;stroke:none;stroke-width:7.00003;stroke-miterlimit:4;stroke-dasharray:none;stroke-opacity:1"
       id="path4159" />
    <path
       inkscape:connector-curvature="0"
       d="m -169.98434,37.438331 -4.53479,2.292928 c 0.0197,0.09924 0.0302,0.201765 0.0302,0.306756 0,0.311078 -0.091,0.600849 -0.24746,0.844774 -0.1471,0.248939 -0.36433,0.460359 -0.64134,0.600413 -0.77259,0.390626 -1.71659,0.08059 -2.1072,-0.691994 -0.25907,-0.512422 -0.20967,-1.100131 0.0782,-1.5519 0.20887,-0.351931 0.55116,-0.615442 0.95729,-0.720093 v -5.056326 a 6.6222244,6.6222244 0 0 0 -6.22812,6.769505 6.6222244,6.6222244 0 0 0 6.78329,6.457209 6.6222244,6.6222244 0 0 0 6.45721,-6.783288 6.6222244,6.6222244 0 0 0 -0.54734,-2.467984 z m -5.68092,-3.974757 v 5.055793 c 0.31882,0.08211 0.59807,0.262335 0.80465,0.506128 l 4.51953,-2.285092 a 6.6222244,6.6222244 0 0 0 -5.32418,-3.276829 z"
       style="fill:#8c1416;fill-opacity:1;stroke:none;stroke-width:7.00003;stroke-miterlimit:4;stroke-dasharray:none;stroke-opacity:1"
       id="path4135" />
    <path
       inkscape:connector-curvature="0"
       d="m -176.44938,32.817356 v -5.066997 c -0.30839,-0.07383 -0.59335,-0.239775 -0.80992,-0.484384 l -4.49941,2.29873 a 6.6222244,6.6222244 0 0 0 5.30933,3.252651 z m -5.66876,-3.949493 4.5021,-2.300093 c -0.0919,-0.410585 -0.0122,-0.836813 0.20775,-1.183537 0.27297,-0.462039 0.77588,-0.772371 1.35104,-0.772371 0.86572,0 1.56837,0.702652 1.56837,1.568374 0,0.309253 -0.09,0.597419 -0.24475,0.840451 -0.14605,0.248988 -0.36204,0.460781 -0.63798,0.601762 -0.0956,0.04886 -0.19404,0.08691 -0.29365,0.114687 v 5.080905 a 6.6222244,6.6222244 0 0 0 6.22826,-6.769505 6.6222244,6.6222244 0 0 0 -6.78329,-6.457209 6.6222244,6.6222244 0 0 0 -6.45721,6.783288 6.6222244,6.6222244 0 0 0 0.55936,2.493248 z"
       style="fill:#00556e;fill-opacity:1;stroke:none;stroke-width:7.00003;stroke-miterlimit:4;stroke-dasharray:none;stroke-opacity:1"
       id="path4123" />
    <path
       inkscape:connector-curvature="0"
       id="path4107"
       d="m -188.90981,40.172564 v 5.053228 c 0.67628,0.174184 1.17639,0.788526 1.17639,1.518931 0,0.865722 -0.70252,1.568381 -1.56824,1.568381 -0.86572,0 -1.56838,-0.702659 -1.56838,-1.568381 0,-0.730253 0.49992,-1.344463 1.17598,-1.5188 V 40.17392 a 6.6222244,6.6222244 0 0 0 -4.40417,2.036278 6.6222244,6.6222244 0 0 0 0.23057,9.362438 6.6222244,6.6222244 0 0 0 9.36244,-0.23057 6.6222244,6.6222244 0 0 0 -0.23057,-9.362439 6.6222244,6.6222244 0 0 0 -4.17402,-1.807063 z"
       style="fill:#001e32;fill-opacity:1;stroke:none;stroke-width:7.00003;stroke-miterlimit:4;stroke-dasharray:none;stroke-opacity:1" />
    <path
       inkscape:connector-curvature="0"
       d="m -189.69406,39.584579 v -5.067135 c -0.43051,-0.103144 -0.8152,-0.386317 -1.03226,-0.811135 -0.2619,-0.512629 -0.21402,-1.102233 0.0739,-1.555676 5e-5,0 0,0 0,0 0.14508,-0.228385 0.35086,-0.422294 0.60907,-0.554222 0.11334,-0.05791 0.23058,-0.100329 0.34917,-0.128726 v -5.095366 a 6.6222244,6.6222244 0 0 0 -6.22785,6.769367 6.6222244,6.6222244 0 0 0 6.22785,6.443163 z m 6.45329,-9.262497 -4.55803,2.328587 c 0.1525,0.68144 -0.16696,1.406132 -0.81735,1.738436 -0.0957,0.04888 -0.194,0.08691 -0.29366,0.11468 v 5.081064 a 6.6222244,6.6222244 0 0 0 6.22839,-6.769505 6.6222244,6.6222244 0 0 0 -0.55935,-2.49311 z m -5.66904,-3.949763 v 5.109682 c 0.28694,0.07983 0.55078,0.240501 0.75428,0.470338 l 4.55532,-2.327376 a 6.6222244,6.6222244 0 0 0 -5.3096,-3.252644 z"
       style="fill:#00556e;fill-opacity:1;stroke:none;stroke-width:7.00003;stroke-miterlimit:4;stroke-dasharray:none;stroke-opacity:1"
       id="path4103" />
    <g
       aria-label="Science "
       style="font-style:normal;font-weight:normal;font-size:66.4329px;line-height:1.25;font-family:sans-serif;letter-spacing:0px;word-spacing:0px;fill:#001e32;fill-opacity:1;stroke:none;stroke-width:1.01222"
       id="text10563-0"
       transform="matrix(0.26138943,0,0,0.26138943,-385.95555,643.41782)">
      <path
         d="m 916.79499,-2273.0563 q 0,4.3142 -2.23822,7.7527 -2.20578,3.4384 -6.48758,5.3847 -4.28181,1.9462 -10.15308,1.9462 -7.03903,0 -11.61278,-2.6599 -3.2438,-1.9138 -5.28739,-5.0927 -2.01115,-3.2114 -2.01115,-6.2281 0,-1.7517 1.2002,-2.9843 1.23264,-1.2651 3.11404,-1.2651 1.52459,0 2.5626,0.9732 1.07045,0.9731 1.81653,2.8869 0.90826,2.2707 1.94627,3.7953 1.07046,1.5245 2.98429,2.5301 1.91384,0.9732 5.02789,0.9732 4.2818,0 6.94172,-1.9788 2.69234,-2.0111 2.69234,-4.9954 0,-2.368 -1.4597,-3.8277 -1.42727,-1.4921 -3.73037,-2.2706 -2.27065,-0.7785 -6.09833,-1.6544 -5.12519,-1.2002 -8.59605,-2.7896 -3.43843,-1.6219 -5.48202,-4.3791 -2.01115,-2.7897 -2.01115,-6.9093 0,-3.925 2.14091,-6.9742 2.1409,-3.0492 6.19564,-4.6711 4.05475,-1.6543 9.53676,-1.6543 4.37912,0 7.55804,1.1029 3.21135,1.0705 5.31982,2.887 2.10847,1.7841 3.08161,3.7628 0.97313,1.9787 0.97313,3.8601 0,1.7192 -1.23264,3.114 -1.2002,1.3624 -3.01673,1.3624 -1.65433,0 -2.53016,-0.8109 -0.84338,-0.8434 -1.84896,-2.7248 -1.29752,-2.6924 -3.11404,-4.1845 -1.81653,-1.5246 -5.83883,-1.5246 -3.73036,0 -6.03346,1.6544 -2.27065,1.6219 -2.27065,3.9249 0,1.4273 0.77851,2.4653 0.77851,1.038 2.1409,1.7841 1.36239,0.7461 2.75723,1.1678 1.39483,0.4217 4.60618,1.2326 4.02231,0.9407 7.2661,2.0761 3.27623,1.1353 5.54689,2.7572 2.30309,1.6219 3.56817,4.1196 1.29752,2.4653 1.29752,6.0659 z"
         style="font-style:normal;font-variant:normal;font-weight:normal;font-stretch:normal;font-family:'Arial Rounded MT Bold';-inkscape-font-specification:'Arial Rounded MT Bold, ';fill:#ffffff;fill-opacity:1;stroke:#ffffff;stroke-width:3.82571;stroke-miterlimit:4;stroke-dasharray:none;stroke-opacity:1"
         id="path833-1"
         inkscape:connector-curvature="0" />
      <path
         d="m 956.17466,-2268.9367 q 0,1.6543 -1.00558,3.5357 -0.97314,1.8814 -3.01673,3.6007 -2.01115,1.6867 -5.09276,2.7247 -3.0816,1.0381 -6.94172,1.0381 -8.2068,0 -12.81298,-4.7684 -4.60619,-4.8008 -4.60619,-12.8454 0,-5.4496 2.10846,-9.6341 2.10847,-4.1845 6.09834,-6.4552 3.98987,-2.3031 9.53675,-2.3031 3.43843,0 6.29296,1.0056 2.88698,1.0056 4.8657,2.5951 2.01115,1.5894 3.04916,3.4059 1.07045,1.7841 1.07045,3.3411 0,1.5895 -1.2002,2.6924 -1.16777,1.1029 -2.85454,1.1029 -1.10289,0 -1.84896,-0.5515 -0.71364,-0.5838 -1.6219,-1.8489 -1.6219,-2.4653 -3.40598,-3.6979 -1.75165,-1.2327 -4.47644,-1.2327 -3.92499,0 -6.3254,3.0816 -2.40041,3.0492 -2.40041,8.369 0,2.4977 0.61633,4.6062 0.61632,2.076 1.78408,3.5682 1.16777,1.4597 2.8221,2.2382 1.65434,0.7461 3.63305,0.7461 2.65991,0 4.54132,-1.2327 1.91383,-1.2326 3.37354,-3.7628 0.81095,-1.4921 1.75165,-2.3355 0.9407,-0.8434 2.30309,-0.8434 1.6219,0 2.69235,1.2326 1.07046,1.2327 1.07046,2.6275 z"
         style="font-style:normal;font-variant:normal;font-weight:normal;font-stretch:normal;font-family:'Arial Rounded MT Bold';-inkscape-font-specification:'Arial Rounded MT Bold, ';fill:#001e32;fill-opacity:1;stroke:#ffffff;stroke-width:3.82571;stroke-miterlimit:4;stroke-dasharray:none;stroke-opacity:1"
         id="path835-0"
         inkscape:connector-curvature="0" />
      <path
         d="m 972.718,-2288.9509 v 25.5935 q 0,2.6599 -1.26508,4.0223 -1.26508,1.3624 -3.21135,1.3624 -1.94628,0 -3.17892,-1.3948 -1.20021,-1.3948 -1.20021,-3.9899 v -25.334 q 0,-2.6275 1.20021,-3.9574 1.23264,-1.33 3.17892,-1.33 1.94627,0 3.21135,1.33 1.26508,1.3299 1.26508,3.6979 z m -4.37912,-9.1475 q -1.84896,0 -3.17892,-1.1353 -1.29752,-1.1354 -1.29752,-3.2114 0,-1.8814 1.32996,-3.0816 1.36239,-1.2326 3.14648,-1.2326 1.71921,0 3.04917,1.1029 1.32995,1.1028 1.32995,3.2113 0,2.0436 -1.29752,3.2114 -1.29751,1.1353 -3.0816,1.1353 z"
         style="font-style:normal;font-variant:normal;font-weight:normal;font-stretch:normal;font-family:'Arial Rounded MT Bold';-inkscape-font-specification:'Arial Rounded MT Bold, ';fill:#001e32;fill-opacity:1;stroke:#ffffff;stroke-width:3.82571;stroke-miterlimit:4;stroke-dasharray:none;stroke-opacity:1"
         id="path837-1"
         inkscape:connector-curvature="0" />
      <path
         d="m 1006.6156,-2273.8024 h -17.32181 q 0.0324,3.0167 1.20021,5.3198 1.2002,2.3031 3.14648,3.4709 1.97871,1.1678 4.34668,1.1678 1.58946,0 2.88694,-0.3568 1.33,-0.3893 2.5626,-1.1678 1.2327,-0.811 2.2707,-1.7192 1.038,-0.9083 2.6923,-2.4653 0.6812,-0.5839 1.9463,-0.5839 1.3624,0 2.2058,0.7461 0.8434,0.7461 0.8434,2.1084 0,1.2002 -0.9407,2.8221 -0.9407,1.5895 -2.8546,3.0817 -1.8814,1.4597 -4.7684,2.4328 -2.8545,0.9731 -6.58483,0.9731 -8.53118,0 -13.26712,-4.8657 -4.73594,-4.8656 -4.73594,-13.2022 0,-3.925 1.16776,-7.2661 1.16777,-3.3735 3.40599,-5.774 2.23822,-2.4004 5.51445,-3.6654 3.27623,-1.2976 7.2661,-1.2976 5.19009,0 8.88799,2.2058 3.7303,2.1734 5.5793,5.6442 1.849,3.4709 1.849,7.0715 0,3.3411 -1.9139,4.3467 -1.9138,0.9731 -5.3847,0.9731 z m -17.32181,-5.0279 h 16.05681 q -0.3244,-4.5413 -2.4653,-6.7795 -2.1085,-2.2706 -5.57933,-2.2706 -3.30867,0 -5.44958,2.303 -2.10846,2.2707 -2.5626,6.7471 z"
         style="font-style:normal;font-variant:normal;font-weight:normal;font-stretch:normal;font-family:'Arial Rounded MT Bold';-inkscape-font-specification:'Arial Rounded MT Bold, ';fill:#001e32;fill-opacity:1;stroke:#ffffff;stroke-width:3.82571;stroke-miterlimit:4;stroke-dasharray:none;stroke-opacity:1"
         id="path839-3"
         inkscape:connector-curvature="0" />
      <path
         d="m 1029.3871,-2289.0807 v 1.0705 q 2.3355,-3.0816 5.0927,-4.5089 2.7897,-1.4597 6.3903,-1.4597 3.5033,0 6.2605,1.5246 2.7573,1.5246 4.1196,4.3142 0.8759,1.6219 1.1354,3.5033 0.2595,1.8814 0.2595,4.8009 v 16.4784 q 0,2.6599 -1.2327,4.0223 -1.2002,1.3624 -3.1464,1.3624 -1.9788,0 -3.2114,-1.3948 -1.2326,-1.3948 -1.2326,-3.9899 v -14.7592 q 0,-4.3791 -1.2327,-6.6822 -1.2002,-2.3356 -4.8332,-2.3356 -2.368,0 -4.3143,1.4273 -1.9463,1.3948 -2.8545,3.8601 -0.6488,1.9787 -0.6488,7.3959 v 11.0937 q 0,2.6924 -1.2651,4.0548 -1.2326,1.3299 -3.2113,1.3299 -1.9139,0 -3.1465,-1.3948 -1.2326,-1.3948 -1.2326,-3.9899 v -25.5935 q 0,-2.5302 1.1029,-3.7628 1.1028,-1.2651 3.0167,-1.2651 1.1677,0 2.1084,0.5515 0.9407,0.5514 1.4922,1.6543 0.5839,1.1029 0.5839,2.6923 z"
         style="font-style:normal;font-variant:normal;font-weight:normal;font-stretch:normal;font-family:'Arial Rounded MT Bold';-inkscape-font-specification:'Arial Rounded MT Bold, ';fill:#001e32;fill-opacity:1;stroke:#ffffff;stroke-width:3.82571;stroke-miterlimit:4;stroke-dasharray:none;stroke-opacity:1"
         id="path841-7"
         inkscape:connector-curvature="0" />
      <path
         d="m 1093.1925,-2268.9367 q 0,1.6543 -1.0056,3.5357 -0.9731,1.8814 -3.0167,3.6007 -2.0112,1.6867 -5.0928,2.7247 -3.0816,1.0381 -6.9417,1.0381 -8.2068,0 -12.813,-4.7684 -4.6062,-4.8008 -4.6062,-12.8454 0,-5.4496 2.1085,-9.6341 2.1085,-4.1845 6.0983,-6.4552 3.9899,-2.3031 9.5368,-2.3031 3.4384,0 6.293,1.0056 2.8869,1.0056 4.8657,2.5951 2.0111,1.5894 3.0491,3.4059 1.0705,1.7841 1.0705,3.3411 0,1.5895 -1.2002,2.6924 -1.1678,1.1029 -2.8546,1.1029 -1.1029,0 -1.8489,-0.5515 -0.7137,-0.5838 -1.6219,-1.8489 -1.6219,-2.4653 -3.406,-3.6979 -1.7517,-1.2327 -4.4765,-1.2327 -3.9249,0 -6.3253,3.0816 -2.4005,3.0492 -2.4005,8.369 0,2.4977 0.6164,4.6062 0.6163,2.076 1.7841,3.5682 1.1677,1.4597 2.8221,2.2382 1.6543,0.7461 3.633,0.7461 2.6599,0 4.5413,-1.2327 1.9139,-1.2326 3.3736,-3.7628 0.8109,-1.4921 1.7516,-2.3355 0.9407,-0.8434 2.3031,-0.8434 1.6219,0 2.6924,1.2326 1.0704,1.2327 1.0704,2.6275 z"
         style="font-style:normal;font-variant:normal;font-weight:normal;font-stretch:normal;font-family:'Arial Rounded MT Bold';-inkscape-font-specification:'Arial Rounded MT Bold, ';fill:#001e32;fill-opacity:1;stroke:#ffffff;stroke-width:3.82571;stroke-miterlimit:4;stroke-dasharray:none;stroke-opacity:1"
         id="path843-7"
         inkscape:connector-curvature="0" />
      <path
         d="m 1125.598,-2273.8024 h -17.3219 q 0.033,3.0167 1.2002,5.3198 1.2003,2.3031 3.1465,3.4709 1.9787,1.1678 4.3467,1.1678 1.5895,0 2.887,-0.3568 1.3299,-0.3893 2.5626,-1.1678 1.2326,-0.811 2.2706,-1.7192 1.0381,-0.9083 2.6924,-2.4653 0.6812,-0.5839 1.9463,-0.5839 1.3624,0 2.2057,0.7461 0.8434,0.7461 0.8434,2.1084 0,1.2002 -0.9407,2.8221 -0.9407,1.5895 -2.8545,3.0817 -1.8814,1.4597 -4.7684,2.4328 -2.8545,0.9731 -6.5849,0.9731 -8.5312,0 -13.2671,-4.8657 -4.7359,-4.8656 -4.7359,-13.2022 0,-3.925 1.1677,-7.2661 1.1678,-3.3735 3.406,-5.774 2.2382,-2.4004 5.5145,-3.6654 3.2762,-1.2976 7.2661,-1.2976 5.19,0 8.888,2.2058 3.7303,2.1734 5.5793,5.6442 1.8489,3.4709 1.8489,7.0715 0,3.3411 -1.9138,4.3467 -1.9138,0.9731 -5.3847,0.9731 z m -17.3219,-5.0279 h 16.0568 q -0.3244,-4.5413 -2.4653,-6.7795 -2.1084,-2.2706 -5.5793,-2.2706 -3.3087,0 -5.4496,2.303 -2.1084,2.2707 -2.5626,6.7471 z"
         style="font-style:normal;font-variant:normal;font-weight:normal;font-stretch:normal;font-family:'Arial Rounded MT Bold';-inkscape-font-specification:'Arial Rounded MT Bold, ';fill:#001e32;fill-opacity:1;stroke:#ffffff;stroke-width:3.82571;stroke-miterlimit:4;stroke-dasharray:none;stroke-opacity:1"
         id="path845-2"
         inkscape:connector-curvature="0" />
    </g>
    <path
       inkscape:connector-curvature="0"
       d="m -162.75341,44.152066 c -0.57657,0 -1.05144,0.2007 -1.42452,0.602032 -0.36742,0.395694 -0.59071,0.983645 -0.66984,1.7637 h 4.1971 c -0.0565,-0.791369 -0.27137,-1.382176 -0.64445,-1.772207 -0.36742,-0.395695 -0.85346,-0.593525 -1.45829,-0.593525 z m 0.0763,-1.610927 c 0.90442,0 1.67878,0.192124 2.32318,0.576505 0.65006,0.378723 1.13623,0.870604 1.45843,1.475444 0.3222,0.604819 0.48316,1.220931 0.48316,1.848392 0,0.582218 -0.16668,0.960913 -0.50018,1.136129 -0.3335,0.169592 -0.80267,0.254347 -1.4075,0.254347 h -4.52777 c 0.006,0.525693 0.11028,0.989282 0.31378,1.39062 0.20914,0.401338 0.48319,0.703675 0.82234,0.907176 0.34482,0.203481 0.72363,0.305269 1.13627,0.305269 0.27698,0 0.52843,-0.03116 0.75454,-0.09334 0.23175,-0.06782 0.45504,-0.169461 0.66984,-0.305138 0.21481,-0.141306 0.41265,-0.291119 0.59354,-0.449397 0.18088,-0.158264 0.41546,-0.373114 0.70374,-0.644454 0.11871,-0.101733 0.28839,-0.152634 0.50884,-0.152634 0.23741,0 0.42953,0.06505 0.5765,0.19505 0.14698,0.130012 0.22045,0.313699 0.22045,0.551109 0,0.209152 -0.0819,0.455027 -0.24584,0.737653 -0.16392,0.27699 -0.41266,0.545591 -0.74616,0.805602 -0.32786,0.254368 -0.74328,0.466217 -1.24635,0.635802 -0.49744,0.169572 -1.07123,0.254486 -1.72129,0.254486 -1.48664,0 -2.64254,-0.423988 -3.46783,-1.271881 -0.82528,-0.847893 -1.23797,-1.998226 -1.23797,-3.450938 0,-0.683971 0.10178,-1.317097 0.30527,-1.899315 0.2035,-0.587881 0.50026,-1.090918 0.89029,-1.509214 0.39003,-0.41829 0.87049,-0.737646 1.4414,-0.958099 0.57092,-0.226102 1.20405,-0.339177 1.89932,-0.339177 z m -0.20207,-1.9936 a 6.6222244,6.6222244 0 0 0 -4.73012,2.056002 6.6222244,6.6222244 0 0 0 0.23057,9.362439 6.6222244,6.6222244 0 0 0 9.36231,-0.23057 6.6222244,6.6222244 0 0 0 -0.23045,-9.362439 6.6222244,6.6222244 0 0 0 -4.63231,-1.825432 z"
       style="fill:#dc2328;fill-opacity:1;stroke:none;stroke-width:7.00003;stroke-miterlimit:4;stroke-dasharray:none;stroke-opacity:1"
       id="path10541" />
    <circle
       style="fill:#ffffff;stroke-width:0.9525"
       id="path1211"
       cx="-189.27002"
       cy="19.207552"
       r="7.1343002" />
    <circle
       style="fill:#ffffff;stroke-width:0.9525"
       id="path1211-4"
       cx="-189.31737"
       cy="32.956421"
       r="7.1343002" />
    <circle
       style="fill:#ffffff;stroke-width:0.9525"
       id="path1211-6"
       cx="-176.04094"
       cy="26.200106"
       r="7.1343002" />
    <circle
       style="fill:#ffffff;stroke-width:0.9525"
       id="path1211-2"
       cx="-162.81169"
       cy="19.632769"
       r="7.1343002" />
    <circle
       style="fill:#ffffff;stroke-width:0.9525"
       id="path1211-8"
       cx="-162.81163"
       cy="33.334461"
       r="7.1343002" />
    <circle
       style="fill:#ffffff;stroke-width:0.9525"
       id="path1211-9"
       cx="-176.04095"
       cy="40.043484"
       r="7.1343002" />
    <path
       style="fill:#0095d1;fill-opacity:1;stroke:none;stroke-width:7.00003;stroke-miterlimit:4;stroke-dasharray:none;stroke-opacity:1"
       d="m -189.36799,12.553829 a 6.6222244,6.6222244 0 0 0 -4.73024,2.056009 6.6222244,6.6222244 0 0 0 0.23057,9.362439 6.6222244,6.6222244 0 0 0 4.1736,1.807056 v -5.116169 c -0.67606,-0.174336 -1.17598,-0.788547 -1.17598,-1.5188 0,-0.865722 0.70266,-1.568381 1.56838,-1.568381 0.86572,0 1.56824,0.702659 1.56824,1.568381 0,0.730405 -0.50011,1.344747 -1.17639,1.518932 v 5.11482 a 6.6222244,6.6222244 0 0 0 4.40459,-2.036416 6.6222244,6.6222244 0 0 0 -0.23057,-9.362439 6.6222244,6.6222244 0 0 0 -4.6322,-1.825432 z"
       id="path4494"
       inkscape:connector-curvature="0" />
    <path
       style="fill:#001e32;fill-opacity:1;stroke:none;stroke-width:7.00003;stroke-miterlimit:4;stroke-dasharray:none;stroke-opacity:1"
       d="M -163.20483,26.206848 V 21.15349 c -0.67619,-0.174247 -1.17639,-0.788451 -1.17639,-1.5188 0,-0.865723 0.70265,-1.568243 1.56837,-1.568243 0.86573,0 1.56839,0.70252 1.56839,1.568243 0,0.730349 -0.50007,1.344553 -1.17625,1.5188 v 5.052141 a 6.6222244,6.6222244 0 0 0 4.40431,-2.036277 6.6222244,6.6222244 0 0 0 -0.23045,-9.362439 6.6222244,6.6222244 0 0 0 -9.36243,0.23057 6.6222244,6.6222244 0 0 0 0.23057,9.362307 6.6222244,6.6222244 0 0 0 4.17388,1.807056 z"
       id="path4496"
       inkscape:connector-curvature="0" />
    <path
       id="path4498"
       style="fill:#8c1416;fill-opacity:1;stroke:none;stroke-width:7.00003;stroke-miterlimit:4;stroke-dasharray:none;stroke-opacity:1"
       d="M -163.20483,39.979257 V 34.92334 c -0.15917,-0.04102 -0.30844,-0.106665 -0.44387,-0.192215 -0.13708,-0.0822 -0.26276,-0.185499 -0.37092,-0.308789 l -4.5094,2.280099 a 6.6222244,6.6222244 0 0 0 5.32419,3.276822 z m 0.78412,-13.211976 v 5.056056 c 0.67618,0.174247 1.17625,0.788457 1.17625,1.518807 0,0.01051 -7e-4,0.02087 -8.3e-4,0.03134 0,0.01046 8.3e-4,0.02082 8.3e-4,0.03134 0,0.73035 -0.50007,1.34456 -1.17625,1.518807 v 5.056326 a 6.6222244,6.6222244 0 0 0 6.22812,-6.769505 6.6222244,6.6222244 0 0 0 -6.22812,-6.443163 z m -6.46492,9.237226 4.51252,-2.281448 c -0.0899,-0.40981 -0.009,-0.834358 0.21085,-1.179629 0.20887,-0.351924 0.5513,-0.615435 0.95743,-0.720093 v -5.056326 a 6.6222244,6.6222244 0 0 0 -6.22826,6.769505 6.6222244,6.6222244 0 0 0 0.54746,2.467991 z"
       inkscape:connector-curvature="0" />
    <path
       id="path4500"
       style="fill:#8c1416;fill-opacity:1;stroke:none;stroke-width:7.00003;stroke-miterlimit:4;stroke-dasharray:none;stroke-opacity:1"
       d="m -169.98434,37.438331 -4.53479,2.292928 c 0.0197,0.09924 0.0302,0.201765 0.0302,0.306756 0,0.311078 -0.091,0.600849 -0.24746,0.844774 -0.1471,0.248939 -0.36433,0.460359 -0.64134,0.600413 -0.77259,0.390626 -1.71659,0.08059 -2.1072,-0.691994 -0.25907,-0.512422 -0.20967,-1.100131 0.0782,-1.5519 0.20887,-0.351931 0.55116,-0.615442 0.95729,-0.720093 v -5.056326 a 6.6222244,6.6222244 0 0 0 -6.22812,6.769505 6.6222244,6.6222244 0 0 0 6.78329,6.457209 6.6222244,6.6222244 0 0 0 6.45721,-6.783288 6.6222244,6.6222244 0 0 0 -0.54734,-2.467984 z m -5.68092,-3.974757 v 5.055793 c 0.31882,0.08211 0.59807,0.262335 0.80465,0.506128 l 4.51953,-2.285092 a 6.6222244,6.6222244 0 0 0 -5.32418,-3.276829 z"
       inkscape:connector-curvature="0" />
    <path
       id="path4502"
       style="fill:#00556e;fill-opacity:1;stroke:none;stroke-width:7.00003;stroke-miterlimit:4;stroke-dasharray:none;stroke-opacity:1"
       d="m -176.44938,32.817356 v -5.066997 c -0.30839,-0.07383 -0.59335,-0.239775 -0.80992,-0.484384 l -4.49941,2.29873 a 6.6222244,6.6222244 0 0 0 5.30933,3.252651 z m -5.66876,-3.949493 4.5021,-2.300093 c -0.0919,-0.410585 -0.0122,-0.836813 0.20775,-1.183537 0.27297,-0.462039 0.77588,-0.772371 1.35104,-0.772371 0.86572,0 1.56837,0.702652 1.56837,1.568374 0,0.309253 -0.09,0.597419 -0.24475,0.840451 -0.14605,0.248988 -0.36204,0.460781 -0.63798,0.601762 -0.0956,0.04886 -0.19404,0.08691 -0.29365,0.114687 v 5.080905 a 6.6222244,6.6222244 0 0 0 6.22826,-6.769505 6.6222244,6.6222244 0 0 0 -6.78329,-6.457209 6.6222244,6.6222244 0 0 0 -6.45721,6.783288 6.6222244,6.6222244 0 0 0 0.55936,2.493248 z"
       inkscape:connector-curvature="0" />
    <path
       style="fill:#001e32;fill-opacity:1;stroke:none;stroke-width:7.00003;stroke-miterlimit:4;stroke-dasharray:none;stroke-opacity:1"
       d="m -188.90981,40.172564 v 5.053228 c 0.67628,0.174184 1.17639,0.788526 1.17639,1.518931 0,0.865722 -0.70252,1.568381 -1.56824,1.568381 -0.86572,0 -1.56838,-0.702659 -1.56838,-1.568381 0,-0.730253 0.49992,-1.344463 1.17598,-1.5188 V 40.17392 a 6.6222244,6.6222244 0 0 0 -4.40417,2.036278 6.6222244,6.6222244 0 0 0 0.23057,9.362438 6.6222244,6.6222244 0 0 0 9.36244,-0.23057 6.6222244,6.6222244 0 0 0 -0.23057,-9.362439 6.6222244,6.6222244 0 0 0 -4.17402,-1.807063 z"
       id="path4504"
       inkscape:connector-curvature="0" />
    <path
       id="path4506"
       style="fill:#00556e;fill-opacity:1;stroke:none;stroke-width:7.00003;stroke-miterlimit:4;stroke-dasharray:none;stroke-opacity:1"
       d="m -189.69406,39.584579 v -5.067135 c -0.43051,-0.103144 -0.8152,-0.386317 -1.03226,-0.811135 -0.2619,-0.512629 -0.21402,-1.102233 0.0739,-1.555676 5e-5,0 0,0 0,0 0.14508,-0.228385 0.35086,-0.422294 0.60907,-0.554222 0.11334,-0.05791 0.23058,-0.100329 0.34917,-0.128726 v -5.095366 a 6.6222244,6.6222244 0 0 0 -6.22785,6.769367 6.6222244,6.6222244 0 0 0 6.22785,6.443163 z m 6.45329,-9.262497 -4.55803,2.328587 c 0.1525,0.68144 -0.16696,1.406132 -0.81735,1.738436 -0.0957,0.04888 -0.194,0.08691 -0.29366,0.11468 v 5.081064 a 6.6222244,6.6222244 0 0 0 6.22839,-6.769505 6.6222244,6.6222244 0 0 0 -0.55935,-2.49311 z m -5.66904,-3.949763 v 5.109682 c 0.28694,0.07983 0.55078,0.240501 0.75428,0.470338 l 4.55532,-2.327376 a 6.6222244,6.6222244 0 0 0 -5.3096,-3.252644 z"
       inkscape:connector-curvature="0" />
    <path
       id="path4514"
       style="fill:#dc2328;fill-opacity:1;stroke:none;stroke-width:7.00003;stroke-miterlimit:4;stroke-dasharray:none;stroke-opacity:1"
       d="m -162.75341,44.152066 c -0.57657,0 -1.05144,0.2007 -1.42452,0.602032 -0.36742,0.395694 -0.59071,0.983645 -0.66984,1.7637 h 4.1971 c -0.0565,-0.791369 -0.27137,-1.382176 -0.64445,-1.772207 -0.36742,-0.395695 -0.85346,-0.593525 -1.45829,-0.593525 z m 0.0763,-1.610927 c 0.90442,0 1.67878,0.192124 2.32318,0.576505 0.65006,0.378723 1.13623,0.870604 1.45843,1.475444 0.3222,0.604819 0.48316,1.220931 0.48316,1.848392 0,0.582218 -0.16668,0.960913 -0.50018,1.136129 -0.3335,0.169592 -0.80267,0.254347 -1.4075,0.254347 h -4.52777 c 0.006,0.525693 0.11028,0.989282 0.31378,1.39062 0.20914,0.401338 0.48319,0.703675 0.82234,0.907176 0.34482,0.203481 0.72363,0.305269 1.13627,0.305269 0.27698,0 0.52843,-0.03116 0.75454,-0.09334 0.23175,-0.06782 0.45504,-0.169461 0.66984,-0.305138 0.21481,-0.141306 0.41265,-0.291119 0.59354,-0.449397 0.18088,-0.158264 0.41546,-0.373114 0.70374,-0.644454 0.11871,-0.101733 0.28839,-0.152634 0.50884,-0.152634 0.23741,0 0.42953,0.06505 0.5765,0.19505 0.14698,0.130012 0.22045,0.313699 0.22045,0.551109 0,0.209152 -0.0819,0.455027 -0.24584,0.737653 -0.16392,0.27699 -0.41266,0.545591 -0.74616,0.805602 -0.32786,0.254368 -0.74328,0.466217 -1.24635,0.635802 -0.49744,0.169572 -1.07123,0.254486 -1.72129,0.254486 -1.48664,0 -2.64254,-0.423988 -3.46783,-1.271881 -0.82528,-0.847893 -1.23797,-1.998226 -1.23797,-3.450938 0,-0.683971 0.10178,-1.317097 0.30527,-1.899315 0.2035,-0.587881 0.50026,-1.090918 0.89029,-1.509214 0.39003,-0.41829 0.87049,-0.737646 1.4414,-0.958099 0.57092,-0.226102 1.20405,-0.339177 1.89932,-0.339177 z m -0.20207,-1.9936 a 6.6222244,6.6222244 0 0 0 -4.73012,2.056002 6.6222244,6.6222244 0 0 0 0.23057,9.362439 6.6222244,6.6222244 0 0 0 9.36231,-0.23057 6.6222244,6.6222244 0 0 0 -0.23045,-9.362439 6.6222244,6.6222244 0 0 0 -4.63231,-1.825432 z"
       inkscape:connector-curvature="0" />
    <g
       aria-label="Science "
       style="font-style:normal;font-weight:normal;font-size:66.4329px;line-height:1.25;font-family:sans-serif;letter-spacing:0px;word-spacing:0px;fill:#001e32;fill-opacity:1;stroke:none;stroke-width:1.01222"
       id="text10563"
       transform="matrix(0.26138943,0,0,0.26138943,-385.76418,656.26701)">
      <path
         d="m 916.07197,-2322.0034 q 0,4.3142 -2.23822,7.7527 -2.20578,3.4384 -6.48758,5.3847 -4.28181,1.9462 -10.15308,1.9462 -7.03903,0 -11.61278,-2.6599 -3.2438,-1.9138 -5.28739,-5.0927 -2.01115,-3.2114 -2.01115,-6.2281 0,-1.7517 1.2002,-2.9843 1.23264,-1.2651 3.11404,-1.2651 1.52459,0 2.5626,0.9732 1.07045,0.9731 1.81653,2.8869 0.90826,2.2707 1.94627,3.7953 1.07046,1.5245 2.98429,2.5301 1.91384,0.9732 5.02789,0.9732 4.2818,0 6.94172,-1.9788 2.69234,-2.0111 2.69234,-4.9954 0,-2.368 -1.4597,-3.8277 -1.42727,-1.4921 -3.73037,-2.2706 -2.27065,-0.7785 -6.09833,-1.6544 -5.12519,-1.2002 -8.59605,-2.7896 -3.43843,-1.6219 -5.48202,-4.3791 -2.01115,-2.7897 -2.01115,-6.9093 0,-3.925 2.14091,-6.9742 2.1409,-3.0492 6.19564,-4.6711 4.05475,-1.6543 9.53676,-1.6543 4.37912,0 7.55804,1.1029 3.21135,1.0705 5.31982,2.887 2.10847,1.7841 3.08161,3.7628 0.97313,1.9787 0.97313,3.8601 0,1.7192 -1.23264,3.114 -1.2002,1.3624 -3.01673,1.3624 -1.65433,0 -2.53016,-0.8109 -0.84338,-0.8434 -1.84896,-2.7248 -1.29752,-2.6924 -3.11404,-4.1845 -1.81653,-1.5246 -5.83883,-1.5246 -3.73036,0 -6.03346,1.6544 -2.27065,1.6219 -2.27065,3.9249 0,1.4273 0.77851,2.4653 0.77851,1.038 2.1409,1.7841 1.36239,0.7461 2.75723,1.1678 1.39483,0.4217 4.60618,1.2326 4.02231,0.9407 7.2661,2.0761 3.27623,1.1353 5.54689,2.7572 2.30309,1.6219 3.56817,4.1196 1.29752,2.4653 1.29752,6.0659 z"
         style="font-style:normal;font-variant:normal;font-weight:normal;font-stretch:normal;font-family:'Arial Rounded MT Bold';-inkscape-font-specification:'Arial Rounded MT Bold, ';fill:#001e32;fill-opacity:1;stroke-width:1.01222"
         id="path833"
         inkscape:connector-curvature="0" />
      <path
         d="m 955.45164,-2317.8838 q 0,1.6543 -1.00558,3.5357 -0.97314,1.8814 -3.01673,3.6007 -2.01115,1.6867 -5.09276,2.7247 -3.0816,1.0381 -6.94172,1.0381 -8.2068,0 -12.81298,-4.7684 -4.60619,-4.8008 -4.60619,-12.8454 0,-5.4496 2.10846,-9.6341 2.10847,-4.1845 6.09834,-6.4552 3.98987,-2.3031 9.53675,-2.3031 3.43843,0 6.29296,1.0056 2.88698,1.0056 4.8657,2.5951 2.01115,1.5894 3.04916,3.4059 1.07045,1.7841 1.07045,3.3411 0,1.5895 -1.2002,2.6924 -1.16777,1.1029 -2.85454,1.1029 -1.10289,0 -1.84896,-0.5515 -0.71364,-0.5838 -1.6219,-1.8489 -1.6219,-2.4653 -3.40598,-3.6979 -1.75165,-1.2327 -4.47644,-1.2327 -3.92499,0 -6.3254,3.0816 -2.40041,3.0492 -2.40041,8.369 0,2.4977 0.61633,4.6062 0.61632,2.076 1.78408,3.5682 1.16777,1.4597 2.8221,2.2382 1.65434,0.7461 3.63305,0.7461 2.65991,0 4.54132,-1.2327 1.91383,-1.2326 3.37354,-3.7628 0.81095,-1.4921 1.75165,-2.3355 0.9407,-0.8434 2.30309,-0.8434 1.6219,0 2.69235,1.2326 1.07046,1.2327 1.07046,2.6275 z"
         style="font-style:normal;font-variant:normal;font-weight:normal;font-stretch:normal;font-family:'Arial Rounded MT Bold';-inkscape-font-specification:'Arial Rounded MT Bold, ';fill:#001e32;fill-opacity:1;stroke-width:1.01222"
         id="path835"
         inkscape:connector-curvature="0" />
      <path
         d="m 971.99498,-2337.898 v 25.5935 q 0,2.6599 -1.26508,4.0223 -1.26508,1.3624 -3.21135,1.3624 -1.94628,0 -3.17892,-1.3948 -1.20021,-1.3948 -1.20021,-3.9899 v -25.334 q 0,-2.6275 1.20021,-3.9574 1.23264,-1.33 3.17892,-1.33 1.94627,0 3.21135,1.33 1.26508,1.3299 1.26508,3.6979 z m -4.37912,-9.1475 q -1.84896,0 -3.17892,-1.1353 -1.29752,-1.1354 -1.29752,-3.2114 0,-1.8814 1.32996,-3.0816 1.36239,-1.2326 3.14648,-1.2326 1.71921,0 3.04917,1.1029 1.32995,1.1028 1.32995,3.2113 0,2.0436 -1.29752,3.2114 -1.29751,1.1353 -3.0816,1.1353 z"
         style="font-style:normal;font-variant:normal;font-weight:normal;font-stretch:normal;font-family:'Arial Rounded MT Bold';-inkscape-font-specification:'Arial Rounded MT Bold, ';fill:#001e32;fill-opacity:1;stroke-width:1.01222"
         id="path837"
         inkscape:connector-curvature="0" />
      <path
         d="m 1005.8926,-2322.7495 h -17.32183 q 0.0324,3.0167 1.20021,5.3198 1.2002,2.3031 3.14648,3.4709 1.97871,1.1678 4.34668,1.1678 1.58946,0 2.88696,-0.3568 1.33,-0.3893 2.5626,-1.1678 1.2327,-0.811 2.2707,-1.7192 1.038,-0.9083 2.6923,-2.4653 0.6812,-0.5839 1.9463,-0.5839 1.3624,0 2.2058,0.7461 0.8434,0.7461 0.8434,2.1084 0,1.2002 -0.9407,2.8221 -0.9407,1.5895 -2.8546,3.0817 -1.8814,1.4597 -4.7684,2.4328 -2.8545,0.9731 -6.58485,0.9731 -8.53118,0 -13.26712,-4.8657 -4.73594,-4.8656 -4.73594,-13.2022 0,-3.925 1.16776,-7.2661 1.16777,-3.3735 3.40599,-5.774 2.23822,-2.4004 5.51445,-3.6654 3.27623,-1.2976 7.2661,-1.2976 5.19011,0 8.88801,2.2058 3.7303,2.1734 5.5793,5.6442 1.849,3.4709 1.849,7.0715 0,3.3411 -1.9139,4.3467 -1.9138,0.9731 -5.3847,0.9731 z m -17.32183,-5.0279 h 16.05683 q -0.3244,-4.5413 -2.4653,-6.7795 -2.1085,-2.2706 -5.57935,-2.2706 -3.30867,0 -5.44958,2.303 -2.10846,2.2707 -2.5626,6.7471 z"
         style="font-style:normal;font-variant:normal;font-weight:normal;font-stretch:normal;font-family:'Arial Rounded MT Bold';-inkscape-font-specification:'Arial Rounded MT Bold, ';fill:#001e32;fill-opacity:1;stroke-width:1.01222"
         id="path839"
         inkscape:connector-curvature="0" />
      <path
         d="m 1028.6641,-2338.0278 v 1.0705 q 2.3355,-3.0816 5.0927,-4.5089 2.7897,-1.4597 6.3903,-1.4597 3.5033,0 6.2605,1.5246 2.7573,1.5246 4.1196,4.3142 0.8759,1.6219 1.1354,3.5033 0.2595,1.8814 0.2595,4.8009 v 16.4784 q 0,2.6599 -1.2327,4.0223 -1.2002,1.3624 -3.1464,1.3624 -1.9788,0 -3.2114,-1.3948 -1.2326,-1.3948 -1.2326,-3.9899 v -14.7592 q 0,-4.3791 -1.2327,-6.6822 -1.2002,-2.3356 -4.8332,-2.3356 -2.368,0 -4.3143,1.4273 -1.9463,1.3948 -2.8545,3.8601 -0.6488,1.9787 -0.6488,7.3959 v 11.0937 q 0,2.6924 -1.2651,4.0548 -1.2326,1.3299 -3.2113,1.3299 -1.9139,0 -3.1465,-1.3948 -1.2326,-1.3948 -1.2326,-3.9899 v -25.5935 q 0,-2.5302 1.1029,-3.7628 1.1028,-1.2651 3.0167,-1.2651 1.1677,0 2.1084,0.5515 0.9407,0.5514 1.4922,1.6543 0.5839,1.1029 0.5839,2.6923 z"
         style="font-style:normal;font-variant:normal;font-weight:normal;font-stretch:normal;font-family:'Arial Rounded MT Bold';-inkscape-font-specification:'Arial Rounded MT Bold, ';fill:#001e32;fill-opacity:1;stroke-width:1.01222"
         id="path841"
         inkscape:connector-curvature="0" />
      <path
         d="m 1092.4695,-2317.8838 q 0,1.6543 -1.0056,3.5357 -0.9731,1.8814 -3.0167,3.6007 -2.0112,1.6867 -5.0928,2.7247 -3.0816,1.0381 -6.9417,1.0381 -8.2068,0 -12.813,-4.7684 -4.6062,-4.8008 -4.6062,-12.8454 0,-5.4496 2.1085,-9.6341 2.1085,-4.1845 6.0983,-6.4552 3.9899,-2.3031 9.5368,-2.3031 3.4384,0 6.293,1.0056 2.8869,1.0056 4.8657,2.5951 2.0111,1.5894 3.0491,3.4059 1.0705,1.7841 1.0705,3.3411 0,1.5895 -1.2002,2.6924 -1.1678,1.1029 -2.8546,1.1029 -1.1029,0 -1.8489,-0.5515 -0.7137,-0.5838 -1.6219,-1.8489 -1.6219,-2.4653 -3.406,-3.6979 -1.7517,-1.2327 -4.4765,-1.2327 -3.9249,0 -6.3253,3.0816 -2.4005,3.0492 -2.4005,8.369 0,2.4977 0.6164,4.6062 0.6163,2.076 1.7841,3.5682 1.1677,1.4597 2.8221,2.2382 1.6543,0.7461 3.633,0.7461 2.6599,0 4.5413,-1.2327 1.9139,-1.2326 3.3736,-3.7628 0.8109,-1.4921 1.7516,-2.3355 0.9407,-0.8434 2.3031,-0.8434 1.6219,0 2.6924,1.2326 1.0704,1.2327 1.0704,2.6275 z"
         style="font-style:normal;font-variant:normal;font-weight:normal;font-stretch:normal;font-family:'Arial Rounded MT Bold';-inkscape-font-specification:'Arial Rounded MT Bold, ';fill:#001e32;fill-opacity:1;stroke-width:1.01222"
         id="path843"
         inkscape:connector-curvature="0" />
      <path
         d="m 1124.875,-2322.7495 h -17.3219 q 0.033,3.0167 1.2002,5.3198 1.2003,2.3031 3.1465,3.4709 1.9787,1.1678 4.3467,1.1678 1.5895,0 2.887,-0.3568 1.3299,-0.3893 2.5626,-1.1678 1.2326,-0.811 2.2706,-1.7192 1.0381,-0.9083 2.6924,-2.4653 0.6812,-0.5839 1.9463,-0.5839 1.3624,0 2.2057,0.7461 0.8434,0.7461 0.8434,2.1084 0,1.2002 -0.9407,2.8221 -0.9407,1.5895 -2.8545,3.0817 -1.8814,1.4597 -4.7684,2.4328 -2.8545,0.9731 -6.5849,0.9731 -8.5312,0 -13.2671,-4.8657 -4.7359,-4.8656 -4.7359,-13.2022 0,-3.925 1.1677,-7.2661 1.1678,-3.3735 3.406,-5.774 2.2382,-2.4004 5.5145,-3.6654 3.2762,-1.2976 7.2661,-1.2976 5.19,0 8.888,2.2058 3.7303,2.1734 5.5793,5.6442 1.8489,3.4709 1.8489,7.0715 0,3.3411 -1.9138,4.3467 -1.9138,0.9731 -5.3847,0.9731 z m -17.3219,-5.0279 h 16.0568 q -0.3244,-4.5413 -2.4653,-6.7795 -2.1084,-2.2706 -5.5793,-2.2706 -3.3087,0 -5.4496,2.303 -2.1084,2.2707 -2.5626,6.7471 z"
         style="font-style:normal;font-variant:normal;font-weight:normal;font-stretch:normal;font-family:'Arial Rounded MT Bold';-inkscape-font-specification:'Arial Rounded MT Bold, ';fill:#001e32;fill-opacity:1;stroke-width:1.01222"
         id="path845"
         inkscape:connector-curvature="0" />
    </g>
  </g>
</svg>
