<?xml version="1.0" encoding="UTF-8" standalone="no"?>
<!-- Created with Inkscape (http://www.inkscape.org/) -->

<svg
   width="371.35315mm"
   height="145.87614mm"
   viewBox="0 0 371.35315 145.87615"
   version="1.1"
   id="svg5"
   inkscape:version="1.1.2 (0a00cf5339, 2022-02-04)"
   sodipodi:docname="logo.svg"
   xmlns:inkscape="http://www.inkscape.org/namespaces/inkscape"
   xmlns:sodipodi="http://sodipodi.sourceforge.net/DTD/sodipodi-0.dtd"
   xmlns="http://www.w3.org/2000/svg"
   xmlns:svg="http://www.w3.org/2000/svg">
  <sodipodi:namedview
     id="namedview7"
     pagecolor="#ffffff"
     bordercolor="#eeeeee"
     borderopacity="1"
     inkscape:pageshadow="0"
     inkscape:pageopacity="0"
     inkscape:pagecheckerboard="0"
     inkscape:document-units="mm"
     showgrid="false"
     inkscape:zoom="0.64"
     inkscape:cx="481.25"
     inkscape:cy="192.1875"
     inkscape:window-width="1918"
     inkscape:window-height="1043"
     inkscape:window-x="1"
     inkscape:window-y="18"
     inkscape:window-maximized="0"
     inkscape:current-layer="layer1"
     showguides="true"
     inkscape:guide-bbox="true"
     fit-margin-top="0"
     fit-margin-left="0"
     fit-margin-right="0"
     fit-margin-bottom="0">
    <sodipodi:guide
       position="25.370887,29.74632"
       orientation="1,0"
       id="guide1110" />
    <sodipodi:guide
       position="99.194654,52.762972"
       orientation="1,0"
       id="guide1112" />
  </sodipodi:namedview>
  <defs
     id="defs2">
    <marker
       style="overflow:visible"
       id="CurveIn"
       refX="0"
       refY="0"
       orient="auto"
       inkscape:stockid="CurveIn"
       inkscape:isstock="true">
      <path
         transform="scale(0.6)"
         style="fill:none;fill-rule:evenodd;stroke:context-stroke;stroke-width:1pt"
         d="m 4.625493,-5.0456926 c -2.76,0 -5.00000002,2.24 -5.00000002,5.00000002 0,2.75999998 2.24000002,4.99999998 5.00000002,4.99999998"
         id="path4023" />
    </marker>
    <marker
       style="overflow:visible"
       id="CurveOut"
       refX="0"
       refY="0"
       orient="auto"
       inkscape:stockid="CurveOut"
       inkscape:isstock="true">
      <path
         transform="scale(0.6)"
         style="fill:none;fill-rule:evenodd;stroke:context-stroke;stroke-width:1pt"
         d="m -5.4129913,-5.0456926 c 2.76,0 4.99999999,2.24 4.99999999,5.00000002 0,2.75999998 -2.23999999,4.99999998 -4.99999999,4.99999998"
         id="path4026" />
    </marker>
    <marker
       style="overflow:visible"
       id="Scissors"
       refX="0"
       refY="0"
       orient="auto"
       inkscape:stockid="Scissors"
       inkscape:isstock="true">
      <path
         style="fill:context-stroke"
         d="M 9.0898857,-3.6061018 C 8.1198849,-4.7769976 6.3697607,-4.7358294 5.0623558,-4.2327734 l -8.2124046,3.0779029 c -2.3882933,-1.3067135 -4.7482873,-0.9325372 -4.7482873,-1.5687873 0,-0.4973164 0.4566662,-0.3883222 0.3883068,-1.6831941 -0.065635,-1.2432767 -1.3635771,-2.1630796 -2.5903987,-2.0816435 -1.227271,-0.00735 -2.499439,0.9331613 -2.510341,2.2300611 -0.09143,1.3063864 1.007209,2.5196896 2.306764,2.6052316 1.5223406,0.2266616 4.218258,-0.6955566 5.482945,1.57086006 -0.9422847,1.73825774 -2.6140244,1.74307674 -4.1255107,1.65607034 -1.2548743,-0.072235 -2.7620933,0.2873979 -3.3606483,1.5208605 -0.578367,1.1820862 -0.0112,2.8646022 1.316749,3.226412 1.3401912,0.4918277 3.1806689,-0.129711 3.4993722,-1.6707242 0.2456585,-1.187823 -0.5953659,-1.7459574 -0.2725074,-2.1771537 0.2436135,-0.32536 1.7907806,-0.1368452 4.5471053,-1.3748244 L 5.6763468,4.2330688 C 6.8000164,4.5467672 8.1730685,4.5362646 9.1684433,3.4313614 l -9.22008423,-3.48508362 z m -18.3078016,-1.900504 c 1.294559,0.7227998 1.1888392,2.6835702 -0.1564272,3.0632889 -1.2165179,0.423661 -2.7710269,-0.7589694 -2.3831779,-2.0774648 0.227148,-1.0818519 1.653387,-1.480632 2.5396051,-0.9858241 z m 0.056264,8.0173649 c 1.3508301,0.4988648 1.1214429,2.7844356 -0.2522207,3.091609 -0.9110594,0.3163391 -2.2135494,-0.1387976 -2.3056964,-1.2121394 -0.177609,-1.305055 1.356085,-2.4841482 2.5579171,-1.8794696 z"
         id="schere" />
    </marker>
    <marker
       style="overflow:visible"
       id="Legs"
       refX="0"
       refY="0"
       orient="auto"
       inkscape:stockid="Legs"
       inkscape:isstock="true">
      <g
         transform="scale(-0.7)"
         id="g4048">
        <g
           transform="matrix(0,-1,-1,0,20.70862,21.31391)"
           id="g4042">
          <path
             style="fill:none;fill-opacity:0.75;fill-rule:evenodd;stroke:context-stroke;stroke-width:1pt"
             d="m 21.22125,20.67536 c -6.910151,4.721157 -2.454525,6.606844 -5.841071,13.443235"
             id="path4038" />
          <path
             style="fill:none;fill-opacity:0.75;fill-rule:evenodd;stroke:context-stroke;stroke-width:1pt"
             d="m 21.39811,20.54812 c -1.360509,8.347524 3.536072,8.76994 4.505041,13.824958"
             id="path4040" />
        </g>
        <path
           style="fill:context-stroke;fill-rule:evenodd;stroke-width:1pt"
           d="m -14.09007,-6.7318716 -0.922168,4.043383 3.962751,-1.22307 z"
           id="path4044" />
        <path
           style="fill:context-stroke;fill-rule:evenodd;stroke-width:1pt"
           d="m -15.215679,4.5567534 1.874127,3.699613 2.266874,-3.472855 z"
           id="path4046" />
      </g>
    </marker>
    <inkscape:perspective
       sodipodi:type="inkscape:persp3d"
       inkscape:vp_x="-23.170675 : 149.43211 : 1"
       inkscape:vp_y="83.979225 : 266.5754 : 0"
       inkscape:vp_z="229.90268 : 104.76614 : 1"
       inkscape:persp3d-origin="69.956535 : 131.0014 : 1"
       id="perspective4981" />
    <marker
       style="overflow:visible"
       id="Arrow1Lend"
       refX="0"
       refY="0"
       orient="auto"
       inkscape:stockid="Arrow1Lend"
       inkscape:isstock="true">
      <path
         transform="matrix(-0.8,0,0,-0.8,-10,0)"
         style="fill:context-stroke;fill-rule:evenodd;stroke:context-stroke;stroke-width:1pt"
         d="M 0,0 5,-5 -12.5,0 5,5 Z"
         id="path3842" />
    </marker>
    <marker
       style="overflow:visible"
       id="Arrow1Mend"
       refX="0"
       refY="0"
       orient="auto"
       inkscape:stockid="Arrow1Mend"
       inkscape:isstock="true">
      <path
         transform="matrix(-0.4,0,0,-0.4,-4,0)"
         style="fill:context-stroke;fill-rule:evenodd;stroke:context-stroke;stroke-width:1pt"
         d="M 0,0 5,-5 -12.5,0 5,5 Z"
         id="path3848" />
    </marker>
    <marker
       style="overflow:visible"
       id="Arrow1Mstart"
       refX="0"
       refY="0"
       orient="auto"
       inkscape:stockid="Arrow1Mstart"
       inkscape:isstock="true">
      <path
         transform="matrix(0.4,0,0,0.4,4,0)"
         style="fill:context-stroke;fill-rule:evenodd;stroke:context-stroke;stroke-width:1pt"
         d="M 0,0 5,-5 -12.5,0 5,5 Z"
         id="path3845" />
    </marker>
  </defs>
  <g
     inkscape:label="Layer 1"
     inkscape:groupmode="layer"
     id="layer1"
     transform="translate(1.5017706,45.715934)">
    <rect
       style="fill:#f9f9f9;fill-opacity:1;stroke:#5f8dd3;stroke-width:5.079;stroke-miterlimit:4;stroke-dasharray:none"
       id="rect8085"
       width="369.27423"
       height="143.79724"
       x="-0.46231553"
       y="-44.676479"
       ry="6.0550761" />
    <path
       style="fill:#999999;stroke:#4d4d4d;stroke-width:3.5000001;stroke-linecap:butt;stroke-linejoin:miter;stroke-miterlimit:4;stroke-dasharray:3.5000001,3.5000001;stroke-dashoffset:0;stroke-opacity:1"
       d="M 53.798895,-15.513149 V 58.992587"
       id="path1276-1-0-0" />
    <path
       style="fill:#999999;stroke:#4d4d4d;stroke-width:3.5;stroke-linecap:butt;stroke-linejoin:miter;stroke-miterlimit:4;stroke-dasharray:none;stroke-opacity:1"
       d="M 24.985462,14.731789 H 99.491163"
       id="path1276" />
    <path
       style="fill:#999999;stroke:#4d4d4d;stroke-width:3.5000001;stroke-linecap:butt;stroke-linejoin:miter;stroke-miterlimit:4;stroke-dasharray:3.5000001,3.5000001;stroke-dashoffset:0;stroke-opacity:1"
       d="M 53.202167,51.576112 H 127.70786"
       id="path1276-2" />
    <path
       style="fill:#999999;stroke:#4d4d4d;stroke-width:3.5;stroke-linecap:butt;stroke-linejoin:miter;stroke-miterlimit:4;stroke-dasharray:none;stroke-opacity:1"
       d="M 53.202167,-9.4606209 H 127.70787"
       id="path1276-5" />
    <path
       style="fill:#999999;stroke:#4d4d4d;stroke-width:3.5;stroke-linecap:butt;stroke-linejoin:miter;stroke-miterlimit:4;stroke-dasharray:none;stroke-opacity:1"
       d="M 24.047747,77.320665 H 98.553459"
       id="path1276-1" />
    <path
       style="fill:#999999;stroke:#4d4d4d;stroke-width:3.5;stroke-linecap:butt;stroke-linejoin:miter;stroke-miterlimit:4;stroke-dasharray:none;stroke-opacity:1"
       d="M 98.809199,8.9028169 V 83.408556"
       id="path1276-1-0" />
    <path
       style="fill:#999999;stroke:#4d4d4d;stroke-width:3.5;stroke-linecap:butt;stroke-linejoin:miter;stroke-miterlimit:4;stroke-dasharray:none;stroke-opacity:1"
       d="M 127.79311,-16.024631 V 58.481105"
       id="path1276-1-0-4" />
    <path
       style="fill:#999999;stroke:#4d4d4d;stroke-width:3.5;stroke-linecap:butt;stroke-linejoin:miter;stroke-miterlimit:4;stroke-dasharray:none;stroke-opacity:1"
       d="M 24.814968,8.9349939 V 83.44078"
       id="path1276-1-0-1" />
    <path
       style="fill:#999999;stroke:#4d4d4d;stroke-width:3.5;stroke-linecap:butt;stroke-linejoin:miter;stroke-miterlimit:4;stroke-dasharray:3.5,3.5;stroke-dashoffset:0;stroke-opacity:1"
       d="M 59.361413,45.753525 24.047747,77.320665"
       id="path1276-1-0-1-3"
       sodipodi:nodetypes="cc" />
    <path
       style="fill:#999999;stroke:#4d4d4d;stroke-width:3.5;stroke-linecap:butt;stroke-linejoin:miter;stroke-miterlimit:4;stroke-dasharray:none;stroke-dashoffset:0;stroke-opacity:1"
       d="M 56.659464,-13.037618 21.345798,18.529517"
       id="path1276-1-0-1-3-2"
       sodipodi:nodetypes="cc" />
    <path
       style="fill:none;fill-opacity:1;stroke:#c83737;stroke-width:2.515;stroke-linecap:butt;stroke-linejoin:miter;stroke-miterlimit:4;stroke-dasharray:none;stroke-opacity:1;marker-end:url(#Legs)"
       d="m 209.07366,44.815741 c 0,0 -7.19828,-8.216024 -20.73207,-4.46162 -14.20584,3.940838 -9.72256,-5.90541 -19.74634,-2.776129 -9.03995,2.822139 -10.74783,-2.287023 -19.61385,2.10689"
       id="path7089"
       sodipodi:nodetypes="cssc" />
    <path
       style="fill:#999999;stroke:#4d4d4d;stroke-width:3.5;stroke-linecap:butt;stroke-linejoin:miter;stroke-miterlimit:4;stroke-dasharray:none;stroke-dashoffset:0;stroke-opacity:1"
       d="M 130.3127,49.363066 94.99906,80.930206"
       id="path1276-1-0-1-3-7"
       sodipodi:nodetypes="cc" />
    <path
       style="fill:#999999;stroke:#4d4d4d;stroke-width:3.5;stroke-linecap:butt;stroke-linejoin:miter;stroke-miterlimit:4;stroke-dasharray:none;stroke-dashoffset:0;stroke-opacity:1"
       d="M 130.65368,-12.696629 95.340037,18.870505"
       id="path1276-1-0-1-3-7-6"
       sodipodi:nodetypes="cc" />
    <circle
       style="fill:#5f8dd3;stroke:#4d4d4d;stroke-width:4;stroke-miterlimit:4;stroke-dasharray:none"
       id="path846"
       cx="24.985458"
       cy="14.749471"
       r="11.396873"
       inkscape:transform-center-x="6.3315959"
       inkscape:transform-center-y="0.75979153" />
    <ellipse
       style="fill:#5f8dd3;stroke:#4d4d4d;stroke-width:4;stroke-miterlimit:4;stroke-dasharray:none"
       id="path846-6"
       cx="98.809258"
       cy="14.749473"
       inkscape:transform-center-x="6.3315959"
       inkscape:transform-center-y="0.75979153"
       rx="11.396873"
       ry="11.396872" />
    <circle
       style="fill:#d40000;stroke:#4d4d4d;stroke-width:4;stroke-miterlimit:4;stroke-dasharray:none"
       id="path846-6-2"
       cx="78.094238"
       cy="30.349644"
       r="9.2623978"
       inkscape:transform-center-x="5.1457765"
       inkscape:transform-center-y="0.61749328" />
    <circle
       style="fill:#5f8dd3;stroke:#4d4d4d;stroke-width:4;stroke-miterlimit:4;stroke-dasharray:none"
       id="path846-64"
       cx="24.985462"
       cy="76.809181"
       r="11.396873"
       inkscape:transform-center-x="6.3315959"
       inkscape:transform-center-y="0.75979153" />
    <circle
       style="fill:#5f8dd3;stroke:#4d4d4d;stroke-width:4;stroke-miterlimit:4;stroke-dasharray:none"
       id="path846-62"
       cx="98.638741"
       cy="76.809189"
       r="11.396873"
       inkscape:transform-center-x="6.3315959"
       inkscape:transform-center-y="0.75979153" />
    <ellipse
       style="fill:#5f8dd3;stroke:#4d4d4d;stroke-width:4;stroke-miterlimit:4;stroke-dasharray:none"
       id="path846-8"
       cx="54.054623"
       cy="-9.4606247"
       inkscape:transform-center-x="6.3315959"
       inkscape:transform-center-y="0.75979153"
       rx="11.396872"
       ry="11.396873" />
    <ellipse
       style="fill:#5f8dd3;stroke:#4d4d4d;stroke-width:4;stroke-miterlimit:4;stroke-dasharray:none"
       id="path846-6-9"
       cx="127.8785"
       cy="-9.4606247"
       inkscape:transform-center-x="6.3315959"
       inkscape:transform-center-y="0.75979153"
       rx="11.396872"
       ry="11.396873" />
    <ellipse
       style="fill:#5f8dd3;stroke:#4d4d4d;stroke-width:4;stroke-miterlimit:4;stroke-dasharray:none"
       id="path846-64-6"
       cx="54.054623"
       cy="51.917091"
       inkscape:transform-center-x="6.3315959"
       inkscape:transform-center-y="0.75979153"
       rx="11.396872"
       ry="11.396873" />
    <ellipse
       style="fill:#5f8dd3;stroke:#4d4d4d;stroke-width:4;stroke-miterlimit:4;stroke-dasharray:none"
       id="path846-62-0"
       cx="127.708"
       cy="51.917107"
       inkscape:transform-center-x="6.3315959"
       inkscape:transform-center-y="0.75979153"
       rx="11.396872"
       ry="11.396873" />
    <ellipse
       style="fill:#ffdd55;stroke-width:0.694164"
       id="path2974"
       cx="282.06961"
       cy="42.062336"
       rx="44.425571"
       ry="44.425575" />
    <rect
       style="fill:#000000;stroke:#000000;stroke-width:2.86499;stroke-miterlimit:4;stroke-dasharray:none;stroke-dashoffset:0"
       id="rect2446"
       width="12.95752"
       height="10.229621"
       x="271.32846"
       y="59.282196" />
    <rect
       style="fill:#e6e6e6;stroke:#4d4d4d;stroke-width:2.86499;stroke-miterlimit:4;stroke-dasharray:none;stroke-dashoffset:0"
       id="rect2274"
       width="82.177956"
       height="49.784153"
       x="236.54819"
       y="7.7931008"
       ry="3.1005859" />
    <rect
       style="fill:#4d4d4d;stroke:#4d4d4d;stroke-width:2.86499;stroke-miterlimit:4;stroke-dasharray:none;stroke-dashoffset:0"
       id="rect2400"
       width="82.177963"
       height="9.2066565"
       x="236.54819"
       y="48.370598"
       ry="0" />
    <rect
       style="fill:#000000;stroke:#000000;stroke-width:2.86499;stroke-miterlimit:4;stroke-dasharray:none;stroke-dashoffset:0"
       id="rect2594"
       width="54.55798"
       height="7.6722097"
       x="251.55132"
       y="67.80687" />
    <circle
       style="fill:#000000;stroke:#000000;stroke-width:2.86499;stroke-miterlimit:4;stroke-dasharray:none;stroke-dashoffset:0"
       id="path2730"
       cx="277.80719"
       cy="52.462444"
       r="1.7049369" />
    <rect
       style="fill:#666666;stroke:#4d4d4d;stroke-width:2.90615;stroke-miterlimit:4;stroke-dasharray:none;stroke-dashoffset:0"
       id="rect2834"
       width="54.557991"
       height="0.51148105"
       x="251.55132"
       y="75.47908" />
    <path
       style="fill:none;stroke:#00aa44;stroke-width:1.18957;stroke-linecap:butt;stroke-linejoin:miter;stroke-miterlimit:4;stroke-dasharray:none;stroke-opacity:1"
       d="m 251.93293,29.725528 13.33943,6.89253 10.13697,-16.416751 10.33049,4.13552"
       id="path3175"
       sodipodi:nodetypes="cccc" />
    <g
       id="g4125"
       transform="translate(70.417548,82.290983)">
      <path
         style="fill:none;stroke:#000000;stroke-width:0.265;stroke-linecap:butt;stroke-linejoin:miter;stroke-miterlimit:4;stroke-dasharray:none;stroke-opacity:1;marker-end:url(#Arrow1Lend)"
         d="M 177.46026,-41.230576 V -68.235398"
         id="path3755" />
      <path
         style="fill:none;stroke:#000000;stroke-width:0.265;stroke-linecap:butt;stroke-linejoin:miter;stroke-miterlimit:4;stroke-dasharray:none;stroke-opacity:1;marker-end:url(#Arrow1Lend)"
         d="m 177.46026,-41.230576 h 38.57831"
         id="path3757" />
    </g>
    <rect
       style="fill:#e6e6e6;stroke:#00aa44;stroke-width:0.865;stroke-miterlimit:4;stroke-dasharray:none"
       id="rect4149"
       width="17.04937"
       height="27.960964"
       x="296.10001"
       y="14.184455" />
    <rect
       style="fill:#e6e6e6;stroke:#00aa44;stroke-width:0.264999;stroke-miterlimit:4;stroke-dasharray:none"
       id="rect4253"
       width="5.7867475"
       height="2.8933737"
       x="298.39099"
       y="16.828403" />
    <rect
       style="fill:#e6e6e6;stroke:#00aa44;stroke-width:0.264999;stroke-miterlimit:4;stroke-dasharray:none"
       id="rect4253-9"
       width="5.7867475"
       height="2.8933737"
       x="298.39099"
       y="19.721775" />
    <rect
       style="fill:#e6e6e6;stroke:#00aa44;stroke-width:0.264999;stroke-miterlimit:4;stroke-dasharray:none"
       id="rect4253-9-4"
       width="5.7867475"
       height="2.8933737"
       x="298.38748"
       y="22.608824" />
    <rect
       style="fill:#e6e6e6;stroke:#00aa44;stroke-width:0.264999;stroke-miterlimit:4;stroke-dasharray:none"
       id="rect4253-9-5"
       width="5.7867475"
       height="2.8933737"
       x="298.38748"
       y="25.583193" />
    <rect
       style="fill:#e6e6e6;stroke:#4d4d4d;stroke-width:6.01738;stroke-miterlimit:4;stroke-dasharray:none"
       id="rect5783-7"
       width="19.856255"
       height="47.719772"
       x="202.86002"
       y="19.669952"
       ry="7.1895537" />
    <rect
       style="fill:#e6e6e6;stroke:#4d4d4d;stroke-width:1.865;stroke-miterlimit:4;stroke-dasharray:none"
       id="rect5783"
       width="23.97073"
       height="51.449387"
       x="198.16922"
       y="20.684763"
       ry="7.7514648" />
    <path
       style="fill:none;stroke:#666666;stroke-width:1.065;stroke-linecap:butt;stroke-linejoin:miter;stroke-miterlimit:4;stroke-dasharray:none;stroke-opacity:1"
       d="m 201.50474,28.889192 h 17.36328"
       id="path6191" />
    <path
       style="fill:none;stroke:#666666;stroke-width:1.065;stroke-linecap:butt;stroke-linejoin:miter;stroke-miterlimit:4;stroke-dasharray:none;stroke-opacity:1"
       d="m 201.45773,33.547113 h 17.36328"
       id="path6191-1" />
    <path
       style="fill:none;stroke:#666666;stroke-width:1.065;stroke-linecap:butt;stroke-linejoin:miter;stroke-miterlimit:4;stroke-dasharray:none;stroke-opacity:1"
       d="m 201.45773,38.005082 h 17.36328"
       id="path6191-0" />
    <path
       style="fill:none;stroke:#666666;stroke-width:1.065;stroke-linecap:butt;stroke-linejoin:miter;stroke-miterlimit:4;stroke-dasharray:none;stroke-opacity:1"
       d="m 201.45773,42.609218 h 17.36328"
       id="path6191-3" />
    <circle
       style="fill:#ff0000;stroke:#666666;stroke-width:1.065;stroke-miterlimit:4;stroke-dasharray:none"
       id="path6433"
       cx="204.01045"
       cy="61.341991"
       r="2.2737629" />
    <path
       inkscape:connector-curvature="0"
       d="m 165.79611,-28.190072 c -1.28778,0 -2.34841,0.448265 -3.18168,1.344643 -0.82064,0.883785 -1.31936,2.196977 -1.4961,3.939235 h 9.37426 c -0.1262,-1.767528 -0.60611,-3.087099 -1.43938,-3.958235 -0.82064,-0.883788 -1.90622,-1.325643 -3.2571,-1.325643 z m 0.17041,-3.598014 c 2.02002,0 3.74956,0.429109 5.18883,1.287627 1.45192,0.845881 2.53779,1.944499 3.25742,3.295413 0.71963,1.350868 1.07913,2.726957 1.07913,4.128395 0,1.300388 -0.37227,2.146205 -1.11714,2.537551 -0.74487,0.378785 -1.79277,0.568085 -3.14366,0.568085 h -10.1128 c 0.0134,1.174139 0.24631,2.209568 0.70083,3.105958 0.46711,0.896391 1.0792,1.571663 1.83669,2.026184 0.77016,0.454476 1.61624,0.68182 2.53787,0.68182 0.61864,0 1.18025,-0.06959 1.68527,-0.208475 0.51762,-0.151477 1.01634,-0.378493 1.49609,-0.681528 0.47978,-0.315607 0.92166,-0.650217 1.32568,-1.003731 0.404,-0.353483 0.92792,-0.833352 1.57181,-1.439392 0.26513,-0.227221 0.64411,-0.340909 1.13649,-0.340909 0.53026,0 0.95936,0.14529 1.28762,0.435646 0.32828,0.290382 0.49238,0.700648 0.49238,1.230905 0,0.467142 -0.18293,1.016306 -0.54909,1.647552 -0.36612,0.618659 -0.92168,1.218581 -1.66656,1.799317 -0.73227,0.568132 -1.66012,1.041299 -2.78373,1.420068 -1.11103,0.37874 -2.39259,0.568396 -3.8445,0.568396 -3.32043,0 -5.90213,-0.94698 -7.74543,-2.840755 -1.84326,-1.893773 -2.765,-4.46305 -2.765,-7.707691 0,-1.527652 0.22732,-2.941743 0.68181,-4.24213 0.45452,-1.313036 1.11733,-2.436572 1.98847,-3.370839 0.87113,-0.934254 1.94425,-1.647537 3.21938,-2.13992 1.27516,-0.505001 2.68925,-0.757555 4.24214,-0.757555 z m -0.45133,-4.452718 a 14.790778,14.790778 0 0 0 -10.56474,4.592092 14.790778,14.790778 0 0 0 0.51497,20.911065 14.790778,14.790778 0 0 0 20.91078,-0.51498 14.790778,14.790778 0 0 0 -0.51471,-20.911063 14.790778,14.790778 0 0 0 -10.3463,-4.077114 z"
       style="fill:#dc2328;fill-opacity:1;stroke:none;stroke-width:15.6346;stroke-miterlimit:4;stroke-dasharray:none;stroke-opacity:1"
       id="path10541" />
    <path
       id="path4514"
       style="fill:#dc2328;fill-opacity:1;stroke:none;stroke-width:15.6346;stroke-miterlimit:4;stroke-dasharray:none;stroke-opacity:1"
       d="m 165.79611,-28.190072 c -1.28778,0 -2.34841,0.448265 -3.18168,1.344643 -0.82064,0.883785 -1.31936,2.196977 -1.4961,3.939235 h 9.37426 c -0.1262,-1.767528 -0.60611,-3.087099 -1.43938,-3.958235 -0.82064,-0.883788 -1.90622,-1.325643 -3.2571,-1.325643 z m 0.17041,-3.598014 c 2.02002,0 3.74956,0.429109 5.18883,1.287627 1.45192,0.845881 2.53779,1.944499 3.25742,3.295413 0.71963,1.350868 1.07913,2.726957 1.07913,4.128395 0,1.300388 -0.37227,2.146205 -1.11714,2.537551 -0.74487,0.378785 -1.79277,0.568085 -3.14366,0.568085 h -10.1128 c 0.0134,1.174139 0.24631,2.209568 0.70083,3.105958 0.46711,0.896391 1.0792,1.571663 1.83669,2.026184 0.77016,0.454476 1.61624,0.68182 2.53787,0.68182 0.61864,0 1.18025,-0.06959 1.68527,-0.208475 0.51762,-0.151477 1.01634,-0.378493 1.49609,-0.681528 0.47978,-0.315607 0.92166,-0.650217 1.32568,-1.003731 0.404,-0.353483 0.92792,-0.833352 1.57181,-1.439392 0.26513,-0.227221 0.64411,-0.340909 1.13649,-0.340909 0.53026,0 0.95936,0.14529 1.28762,0.435646 0.32828,0.290382 0.49238,0.700648 0.49238,1.230905 0,0.467142 -0.18293,1.016306 -0.54909,1.647552 -0.36612,0.618659 -0.92168,1.218581 -1.66656,1.799317 -0.73227,0.568132 -1.66012,1.041299 -2.78373,1.420068 -1.11103,0.37874 -2.39259,0.568396 -3.8445,0.568396 -3.32043,0 -5.90213,-0.94698 -7.74543,-2.840755 -1.84326,-1.893773 -2.765,-4.46305 -2.765,-7.707691 0,-1.527652 0.22732,-2.941743 0.68181,-4.24213 0.45452,-1.313036 1.11733,-2.436572 1.98847,-3.370839 0.87113,-0.934254 1.94425,-1.647537 3.21938,-2.13992 1.27516,-0.505001 2.68925,-0.757555 4.24214,-0.757555 z m -0.45133,-4.452718 a 14.790778,14.790778 0 0 0 -10.56474,4.592092 14.790778,14.790778 0 0 0 0.51497,20.911065 14.790778,14.790778 0 0 0 20.91078,-0.51498 14.790778,14.790778 0 0 0 -0.51471,-20.911063 14.790778,14.790778 0 0 0 -10.3463,-4.077114 z"
       inkscape:connector-curvature="0" />
    <g
       aria-label="Science "
       style="font-style:normal;font-weight:normal;font-size:66.4329px;line-height:1.25;font-family:sans-serif;letter-spacing:0px;word-spacing:0px;fill:#001e32;fill-opacity:1;stroke:none;stroke-width:0;stroke-miterlimit:4;stroke-dasharray:none;stroke-opacity:1"
       id="text10563"
       transform="matrix(0.58381487,0,0,0.58381487,-331.05957,1338.9728)">
      <path
         d="m 916.07197,-2322.0034 q 0,4.3142 -2.23822,7.7527 -2.20578,3.4384 -6.48758,5.3847 -4.28181,1.9462 -10.15308,1.9462 -7.03903,0 -11.61278,-2.6599 -3.2438,-1.9138 -5.28739,-5.0927 -2.01115,-3.2114 -2.01115,-6.2281 0,-1.7517 1.2002,-2.9843 1.23264,-1.2651 3.11404,-1.2651 1.52459,0 2.5626,0.9732 1.07045,0.9731 1.81653,2.8869 0.90826,2.2707 1.94627,3.7953 1.07046,1.5245 2.98429,2.5301 1.91384,0.9732 5.02789,0.9732 4.2818,0 6.94172,-1.9788 2.69234,-2.0111 2.69234,-4.9954 0,-2.368 -1.4597,-3.8277 -1.42727,-1.4921 -3.73037,-2.2706 -2.27065,-0.7785 -6.09833,-1.6544 -5.12519,-1.2002 -8.59605,-2.7896 -3.43843,-1.6219 -5.48202,-4.3791 -2.01115,-2.7897 -2.01115,-6.9093 0,-3.925 2.14091,-6.9742 2.1409,-3.0492 6.19564,-4.6711 4.05475,-1.6543 9.53676,-1.6543 4.37912,0 7.55804,1.1029 3.21135,1.0705 5.31982,2.887 2.10847,1.7841 3.08161,3.7628 0.97313,1.9787 0.97313,3.8601 0,1.7192 -1.23264,3.114 -1.2002,1.3624 -3.01673,1.3624 -1.65433,0 -2.53016,-0.8109 -0.84338,-0.8434 -1.84896,-2.7248 -1.29752,-2.6924 -3.11404,-4.1845 -1.81653,-1.5246 -5.83883,-1.5246 -3.73036,0 -6.03346,1.6544 -2.27065,1.6219 -2.27065,3.9249 0,1.4273 0.77851,2.4653 0.77851,1.038 2.1409,1.7841 1.36239,0.7461 2.75723,1.1678 1.39483,0.4217 4.60618,1.2326 4.02231,0.9407 7.2661,2.0761 3.27623,1.1353 5.54689,2.7572 2.30309,1.6219 3.56817,4.1196 1.29752,2.4653 1.29752,6.0659 z"
         style="font-style:normal;font-variant:normal;font-weight:normal;font-stretch:normal;font-family:'Arial Rounded MT Bold';-inkscape-font-specification:'Arial Rounded MT Bold, ';fill:#001e32;fill-opacity:1;stroke:none;stroke-width:0;stroke-miterlimit:4;stroke-dasharray:none;stroke-opacity:1"
         id="path833"
         inkscape:connector-curvature="0" />
      <path
         d="m 955.45164,-2317.8838 q 0,1.6543 -1.00558,3.5357 -0.97314,1.8814 -3.01673,3.6007 -2.01115,1.6867 -5.09276,2.7247 -3.0816,1.0381 -6.94172,1.0381 -8.2068,0 -12.81298,-4.7684 -4.60619,-4.8008 -4.60619,-12.8454 0,-5.4496 2.10846,-9.6341 2.10847,-4.1845 6.09834,-6.4552 3.98987,-2.3031 9.53675,-2.3031 3.43843,0 6.29296,1.0056 2.88698,1.0056 4.8657,2.5951 2.01115,1.5894 3.04916,3.4059 1.07045,1.7841 1.07045,3.3411 0,1.5895 -1.2002,2.6924 -1.16777,1.1029 -2.85454,1.1029 -1.10289,0 -1.84896,-0.5515 -0.71364,-0.5838 -1.6219,-1.8489 -1.6219,-2.4653 -3.40598,-3.6979 -1.75165,-1.2327 -4.47644,-1.2327 -3.92499,0 -6.3254,3.0816 -2.40041,3.0492 -2.40041,8.369 0,2.4977 0.61633,4.6062 0.61632,2.076 1.78408,3.5682 1.16777,1.4597 2.8221,2.2382 1.65434,0.7461 3.63305,0.7461 2.65991,0 4.54132,-1.2327 1.91383,-1.2326 3.37354,-3.7628 0.81095,-1.4921 1.75165,-2.3355 0.9407,-0.8434 2.30309,-0.8434 1.6219,0 2.69235,1.2326 1.07046,1.2327 1.07046,2.6275 z"
         style="font-style:normal;font-variant:normal;font-weight:normal;font-stretch:normal;font-family:'Arial Rounded MT Bold';-inkscape-font-specification:'Arial Rounded MT Bold, ';fill:#001e32;fill-opacity:1;stroke:none;stroke-width:0;stroke-miterlimit:4;stroke-dasharray:none;stroke-opacity:1"
         id="path835"
         inkscape:connector-curvature="0" />
      <path
         d="m 971.99498,-2337.898 v 25.5935 q 0,2.6599 -1.26508,4.0223 -1.26508,1.3624 -3.21135,1.3624 -1.94628,0 -3.17892,-1.3948 -1.20021,-1.3948 -1.20021,-3.9899 v -25.334 q 0,-2.6275 1.20021,-3.9574 1.23264,-1.33 3.17892,-1.33 1.94627,0 3.21135,1.33 1.26508,1.3299 1.26508,3.6979 z m -4.37912,-9.1475 q -1.84896,0 -3.17892,-1.1353 -1.29752,-1.1354 -1.29752,-3.2114 0,-1.8814 1.32996,-3.0816 1.36239,-1.2326 3.14648,-1.2326 1.71921,0 3.04917,1.1029 1.32995,1.1028 1.32995,3.2113 0,2.0436 -1.29752,3.2114 -1.29751,1.1353 -3.0816,1.1353 z"
         style="font-style:normal;font-variant:normal;font-weight:normal;font-stretch:normal;font-family:'Arial Rounded MT Bold';-inkscape-font-specification:'Arial Rounded MT Bold, ';fill:#001e32;fill-opacity:1;stroke:none;stroke-width:0;stroke-miterlimit:4;stroke-dasharray:none;stroke-opacity:1"
         id="path837"
         inkscape:connector-curvature="0" />
      <path
         d="m 1005.8926,-2322.7495 h -17.32183 q 0.0324,3.0167 1.20021,5.3198 1.2002,2.3031 3.14648,3.4709 1.97871,1.1678 4.34668,1.1678 1.58946,0 2.88696,-0.3568 1.33,-0.3893 2.5626,-1.1678 1.2327,-0.811 2.2707,-1.7192 1.038,-0.9083 2.6923,-2.4653 0.6812,-0.5839 1.9463,-0.5839 1.3624,0 2.2058,0.7461 0.8434,0.7461 0.8434,2.1084 0,1.2002 -0.9407,2.8221 -0.9407,1.5895 -2.8546,3.0817 -1.8814,1.4597 -4.7684,2.4328 -2.8545,0.9731 -6.58485,0.9731 -8.53118,0 -13.26712,-4.8657 -4.73594,-4.8656 -4.73594,-13.2022 0,-3.925 1.16776,-7.2661 1.16777,-3.3735 3.40599,-5.774 2.23822,-2.4004 5.51445,-3.6654 3.27623,-1.2976 7.2661,-1.2976 5.19011,0 8.88801,2.2058 3.7303,2.1734 5.5793,5.6442 1.849,3.4709 1.849,7.0715 0,3.3411 -1.9139,4.3467 -1.9138,0.9731 -5.3847,0.9731 z m -17.32183,-5.0279 h 16.05683 q -0.3244,-4.5413 -2.4653,-6.7795 -2.1085,-2.2706 -5.57935,-2.2706 -3.30867,0 -5.44958,2.303 -2.10846,2.2707 -2.5626,6.7471 z"
         style="font-style:normal;font-variant:normal;font-weight:normal;font-stretch:normal;font-family:'Arial Rounded MT Bold';-inkscape-font-specification:'Arial Rounded MT Bold, ';fill:#001e32;fill-opacity:1;stroke:none;stroke-width:0;stroke-miterlimit:4;stroke-dasharray:none;stroke-opacity:1"
         id="path839"
         inkscape:connector-curvature="0" />
      <path
         d="m 1028.6641,-2338.0278 v 1.0705 q 2.3355,-3.0816 5.0927,-4.5089 2.7897,-1.4597 6.3903,-1.4597 3.5033,0 6.2605,1.5246 2.7573,1.5246 4.1196,4.3142 0.8759,1.6219 1.1354,3.5033 0.2595,1.8814 0.2595,4.8009 v 16.4784 q 0,2.6599 -1.2327,4.0223 -1.2002,1.3624 -3.1464,1.3624 -1.9788,0 -3.2114,-1.3948 -1.2326,-1.3948 -1.2326,-3.9899 v -14.7592 q 0,-4.3791 -1.2327,-6.6822 -1.2002,-2.3356 -4.8332,-2.3356 -2.368,0 -4.3143,1.4273 -1.9463,1.3948 -2.8545,3.8601 -0.6488,1.9787 -0.6488,7.3959 v 11.0937 q 0,2.6924 -1.2651,4.0548 -1.2326,1.3299 -3.2113,1.3299 -1.9139,0 -3.1465,-1.3948 -1.2326,-1.3948 -1.2326,-3.9899 v -25.5935 q 0,-2.5302 1.1029,-3.7628 1.1028,-1.2651 3.0167,-1.2651 1.1677,0 2.1084,0.5515 0.9407,0.5514 1.4922,1.6543 0.5839,1.1029 0.5839,2.6923 z"
         style="font-style:normal;font-variant:normal;font-weight:normal;font-stretch:normal;font-family:'Arial Rounded MT Bold';-inkscape-font-specification:'Arial Rounded MT Bold, ';fill:#001e32;fill-opacity:1;stroke:none;stroke-width:0;stroke-miterlimit:4;stroke-dasharray:none;stroke-opacity:1"
         id="path841"
         inkscape:connector-curvature="0" />
      <path
         d="m 1092.4695,-2317.8838 q 0,1.6543 -1.0056,3.5357 -0.9731,1.8814 -3.0167,3.6007 -2.0112,1.6867 -5.0928,2.7247 -3.0816,1.0381 -6.9417,1.0381 -8.2068,0 -12.813,-4.7684 -4.6062,-4.8008 -4.6062,-12.8454 0,-5.4496 2.1085,-9.6341 2.1085,-4.1845 6.0983,-6.4552 3.9899,-2.3031 9.5368,-2.3031 3.4384,0 6.293,1.0056 2.8869,1.0056 4.8657,2.5951 2.0111,1.5894 3.0491,3.4059 1.0705,1.7841 1.0705,3.3411 0,1.5895 -1.2002,2.6924 -1.1678,1.1029 -2.8546,1.1029 -1.1029,0 -1.8489,-0.5515 -0.7137,-0.5838 -1.6219,-1.8489 -1.6219,-2.4653 -3.406,-3.6979 -1.7517,-1.2327 -4.4765,-1.2327 -3.9249,0 -6.3253,3.0816 -2.4005,3.0492 -2.4005,8.369 0,2.4977 0.6164,4.6062 0.6163,2.076 1.7841,3.5682 1.1677,1.4597 2.8221,2.2382 1.6543,0.7461 3.633,0.7461 2.6599,0 4.5413,-1.2327 1.9139,-1.2326 3.3736,-3.7628 0.8109,-1.4921 1.7516,-2.3355 0.9407,-0.8434 2.3031,-0.8434 1.6219,0 2.6924,1.2326 1.0704,1.2327 1.0704,2.6275 z"
         style="font-style:normal;font-variant:normal;font-weight:normal;font-stretch:normal;font-family:'Arial Rounded MT Bold';-inkscape-font-specification:'Arial Rounded MT Bold, ';fill:#001e32;fill-opacity:1;stroke:none;stroke-width:0;stroke-miterlimit:4;stroke-dasharray:none;stroke-opacity:1"
         id="path843"
         inkscape:connector-curvature="0" />
      <path
         d="m 1124.875,-2322.7495 h -17.3219 q 0.033,3.0167 1.2002,5.3198 1.2003,2.3031 3.1465,3.4709 1.9787,1.1678 4.3467,1.1678 1.5895,0 2.887,-0.3568 1.3299,-0.3893 2.5626,-1.1678 1.2326,-0.811 2.2706,-1.7192 1.0381,-0.9083 2.6924,-2.4653 0.6812,-0.5839 1.9463,-0.5839 1.3624,0 2.2057,0.7461 0.8434,0.7461 0.8434,2.1084 0,1.2002 -0.9407,2.8221 -0.9407,1.5895 -2.8545,3.0817 -1.8814,1.4597 -4.7684,2.4328 -2.8545,0.9731 -6.5849,0.9731 -8.5312,0 -13.2671,-4.8657 -4.7359,-4.8656 -4.7359,-13.2022 0,-3.925 1.1677,-7.2661 1.1678,-3.3735 3.406,-5.774 2.2382,-2.4004 5.5145,-3.6654 3.2762,-1.2976 7.2661,-1.2976 5.19,0 8.888,2.2058 3.7303,2.1734 5.5793,5.6442 1.8489,3.4709 1.8489,7.0715 0,3.3411 -1.9138,4.3467 -1.9138,0.9731 -5.3847,0.9731 z m -17.3219,-5.0279 h 16.0568 q -0.3244,-4.5413 -2.4653,-6.7795 -2.1084,-2.2706 -5.5793,-2.2706 -3.3087,0 -5.4496,2.303 -2.1084,2.2707 -2.5626,6.7471 z"
         style="font-style:normal;font-variant:normal;font-weight:normal;font-stretch:normal;font-family:'Arial Rounded MT Bold';-inkscape-font-specification:'Arial Rounded MT Bold, ';fill:#001e32;fill-opacity:1;stroke:none;stroke-width:0;stroke-miterlimit:4;stroke-dasharray:none;stroke-opacity:1"
         id="path845"
         inkscape:connector-curvature="0" />
    </g>
  </g>
</svg>
