<?xml version="1.0" encoding="UTF-8" standalone="no"?>
<!-- Created with Inkscape (http://www.inkscape.org/) -->

<svg
   xmlns:dc="http://purl.org/dc/elements/1.1/"
   xmlns:cc="http://creativecommons.org/ns#"
   xmlns:rdf="http://www.w3.org/1999/02/22-rdf-syntax-ns#"
   xmlns:svg="http://www.w3.org/2000/svg"
   xmlns="http://www.w3.org/2000/svg"
   xmlns:sodipodi="http://sodipodi.sourceforge.net/DTD/sodipodi-0.dtd"
   xmlns:inkscape="http://www.inkscape.org/namespaces/inkscape"
   width="210mm"
   height="297mm"
   viewBox="0 0 210 297"
   version="1.1"
   id="svg8"
   inkscape:version="0.92.5 (2060ec1f9f, 2020-04-08)"
   sodipodi:docname="Zeichnung.svg">
  <defs
     id="defs2" />
  <sodipodi:namedview
     id="base"
     pagecolor="#ffffff"
     bordercolor="#666666"
     borderopacity="1.0"
     inkscape:pageopacity="0.0"
     inkscape:pageshadow="2"
     inkscape:zoom="2"
     inkscape:cx="405.71429"
     inkscape:cy="877.14286"
     inkscape:document-units="mm"
     inkscape:current-layer="layer1-6"
     showgrid="false"
     inkscape:window-width="1848"
     inkscape:window-height="1163"
     inkscape:window-x="72"
     inkscape:window-y="0"
     inkscape:window-maximized="1" />
  <metadata
     id="metadata5">
    <rdf:RDF>
      <cc:Work
         rdf:about="">
        <dc:format>image/svg+xml</dc:format>
        <dc:type
           rdf:resource="http://purl.org/dc/dcmitype/StillImage" />
        <dc:title></dc:title>
      </cc:Work>
    </rdf:RDF>
  </metadata>
  <g
     inkscape:label="Ebene 1"
     inkscape:groupmode="layer"
     id="layer1">
    <g
       transform="translate(219.98215,24.946428)"
       id="layer1-6"
       inkscape:label="Layer 1">
      <g
         id="g4516"
         transform="matrix(0.26138943,0,0,0.26138943,-385.76418,656.26701)"
         style="stroke-width:3.82570958">
        <path
           transform="matrix(0.26458333,0,0,0.26458333,-1065.1484,-291.52789)"
           inkscape:connector-curvature="0"
           id="path4494"
           d="m 6865.5234,-8205.8516 a 95.753216,95.753216 0 0 0 -68.3964,29.7286 95.753216,95.753216 0 0 0 3.3339,135.375 95.753216,95.753216 0 0 0 60.3477,26.1289 v -73.9766 c -9.7754,-2.5208 -17.0039,-11.4019 -17.0039,-21.9609 0,-12.5178 10.1599,-22.6778 22.6777,-22.6778 12.5178,0 22.6758,10.16 22.6758,22.6778 0,10.5612 -7.2313,19.4442 -17.0098,21.9628 v 73.9571 a 95.753216,95.753216 0 0 0 63.6875,-29.4453 95.753216,95.753216 0 0 0 -3.3339,-135.375 95.753216,95.753216 0 0 0 -66.9786,-26.3946 z"
           style="fill:#0095d1;fill-opacity:1;stroke:none;stroke-width:101.21562195;stroke-miterlimit:4;stroke-dasharray:none;stroke-opacity:1" />
        <path
           transform="matrix(0.26458333,0,0,0.26458333,-1065.1484,-291.52789)"
           inkscape:connector-curvature="0"
           id="path4496"
           d="m 7243.8262,-8008.4375 v -73.0684 c -9.7773,-2.5195 -17.0098,-11.4005 -17.0098,-21.9609 0,-12.5178 10.1599,-22.6758 22.6777,-22.6758 12.5178,0 22.6778,10.158 22.6778,22.6758 0,10.5604 -7.2306,19.4414 -17.0078,21.9609 v 73.0508 a 95.753216,95.753216 0 0 0 63.6836,-29.4433 95.753216,95.753216 0 0 0 -3.3321,-135.375 95.753216,95.753216 0 0 0 -135.375,3.3339 95.753216,95.753216 0 0 0 3.334,135.3731 95.753216,95.753216 0 0 0 60.3516,26.1289 z"
           style="fill:#001e32;fill-opacity:1;stroke:none;stroke-width:101.21562195;stroke-miterlimit:4;stroke-dasharray:none;stroke-opacity:1" />
        <path
           transform="matrix(0.26458333,0,0,0.26458333,-1065.1484,-291.52789)"
           inkscape:connector-curvature="0"
           d="m 7243.8262,-7809.2971 v -73.1054 c -2.3015,-0.5931 -4.4598,-1.5423 -6.418,-2.7793 -1.9821,-1.1885 -3.7994,-2.6822 -5.3633,-4.4649 l -65.2031,32.9688 a 95.753216,95.753216 0 0 0 76.9844,47.3808 z m 11.3379,-191.0369 v 73.1074 c 9.7772,2.5195 17.0078,11.4006 17.0078,21.961 0,0.152 -0.01,0.3018 -0.012,0.4531 0,0.1513 0.012,0.3011 0.012,0.4531 0,10.5604 -7.2306,19.4415 -17.0078,21.961 v 73.1113 a 95.753216,95.753216 0 0 0 90.0547,-97.8828 95.753216,95.753216 0 0 0 -90.0547,-93.1641 z m -93.4786,133.5645 65.2481,-32.9883 c -1.2997,-5.9256 -0.1325,-12.0643 3.0488,-17.0567 3.0202,-5.0886 7.9715,-8.8988 13.8438,-10.4121 v -73.1113 a 95.753216,95.753216 0 0 0 -90.0567,97.8828 95.753216,95.753216 0 0 0 7.916,35.6856 z"
           style="fill:#8c1416;fill-opacity:1;stroke:none;stroke-width:101.21562195;stroke-miterlimit:4;stroke-dasharray:none;stroke-opacity:1"
           id="path4498" />
        <path
           transform="matrix(0.26458333,0,0,0.26458333,-1065.1484,-291.52789)"
           inkscape:connector-curvature="0"
           d="m 7145.7988,-7846.0373 -65.5703,33.1543 c 0.285,1.4349 0.4375,2.9174 0.4375,4.4355 0,4.498 -1.3166,8.6879 -3.5781,12.2149 -2.127,3.5995 -5.268,6.6565 -9.2734,8.6816 -11.1712,5.6482 -24.8208,1.1653 -30.4688,-10.0058 -3.746,-7.4093 -3.0317,-15.9072 1.1309,-22.4395 3.0201,-5.0887 7.9694,-8.8989 13.8418,-10.4121 v -73.1113 a 95.753216,95.753216 0 0 0 -90.0547,97.8828 95.753216,95.753216 0 0 0 98.082,93.3672 95.753216,95.753216 0 0 0 93.3672,-98.0821 95.753216,95.753216 0 0 0 -7.9141,-35.6855 z m -82.1426,-57.4725 v 73.1036 c 4.6099,1.1873 8.6478,3.7932 11.6348,7.3183 l 65.3496,-33.041 a 95.753216,95.753216 0 0 0 -76.9844,-47.3809 z"
           style="fill:#8c1416;fill-opacity:1;stroke:none;stroke-width:101.21562195;stroke-miterlimit:4;stroke-dasharray:none;stroke-opacity:1"
           id="path4500" />
        <path
           transform="matrix(0.26458333,0,0,0.26458333,-1065.1484,-291.52789)"
           inkscape:connector-curvature="0"
           d="m 7052.3184,-7912.8537 v -73.2656 c -4.4592,-1.0676 -8.5795,-3.467 -11.711,-7.0039 l -65.0586,33.2382 a 95.753216,95.753216 0 0 0 76.7696,47.0313 z m -81.9668,-57.1072 65.0976,-33.2579 c -1.3286,-5.9368 -0.1766,-12.0998 3.0039,-17.1132 3.947,-6.6808 11.2188,-11.168 19.5352,-11.168 12.5178,0 22.6777,10.1599 22.6777,22.6777 0,4.4716 -1.3019,8.6383 -3.539,12.1524 -2.1117,3.6002 -5.2348,6.6626 -9.2247,8.7011 -1.3827,0.7065 -2.8057,1.2567 -4.2461,1.6583 v 73.4667 a 95.753216,95.753216 0 0 0 90.0567,-97.8828 95.753216,95.753216 0 0 0 -98.082,-93.3672 95.753216,95.753216 0 0 0 -93.3672,98.0821 95.753216,95.753216 0 0 0 8.0879,36.0508 z"
           style="fill:#00556e;fill-opacity:1;stroke:none;stroke-width:101.21562195;stroke-miterlimit:4;stroke-dasharray:none;stroke-opacity:1"
           id="path4502" />
        <path
           transform="matrix(0.26458333,0,0,0.26458333,-1065.1484,-291.52789)"
           inkscape:connector-curvature="0"
           id="path4504"
           d="m 6872.1484,-7806.502 v 73.0665 c 9.7785,2.5186 17.0098,11.4016 17.0098,21.9628 0,12.5178 -10.158,22.6778 -22.6758,22.6778 -12.5178,0 -22.6777,-10.16 -22.6777,-22.6778 0,-10.559 7.2285,-19.4401 17.0039,-21.9609 v -73.0488 a 95.753216,95.753216 0 0 0 -63.6816,29.4433 95.753216,95.753216 0 0 0 3.3339,135.375 95.753216,95.753216 0 0 0 135.375,-3.3339 95.753216,95.753216 0 0 0 -3.3339,-135.375 95.753216,95.753216 0 0 0 -60.3536,-26.129 z"
           style="fill:#001e32;fill-opacity:1;stroke:none;stroke-width:101.21562195;stroke-miterlimit:4;stroke-dasharray:none;stroke-opacity:1" />
        <path
           transform="matrix(0.26458333,0,0,0.26458333,-1065.1484,-291.52789)"
           inkscape:connector-curvature="0"
           d="m 6860.8086,-7815.0039 v -73.2676 c -6.2249,-1.4914 -11.7873,-5.5859 -14.9258,-11.7285 -3.787,-7.4123 -3.0947,-15.9376 1.0684,-22.4941 7e-4,0 0,0 0,0 2.0977,-3.3023 5.0731,-6.1061 8.8067,-8.0137 1.6389,-0.8374 3.3341,-1.4507 5.0488,-1.8613 v -73.6758 a 95.753216,95.753216 0 0 0 -90.0508,97.8808 95.753216,95.753216 0 0 0 90.0508,93.1641 z m 93.3105,-133.9299 -65.9062,33.6699 c 2.205,9.8532 -2.4142,20.3318 -11.8184,25.1367 -1.3833,0.7068 -2.8051,1.2566 -4.2461,1.6582 V -7815 a 95.753216,95.753216 0 0 0 90.0586,-97.8828 95.753216,95.753216 0 0 0 -8.0879,-36.0488 z m -81.9707,-57.1111 v 73.8828 c 4.1489,1.1543 7.9639,3.4775 10.9063,6.8008 l 65.8672,-33.6524 a 95.753216,95.753216 0 0 0 -76.7735,-47.0312 z"
           style="fill:#00556e;fill-opacity:1;stroke:none;stroke-width:101.21562195;stroke-miterlimit:4;stroke-dasharray:none;stroke-opacity:1"
           id="path4506" />
        <path
           transform="matrix(0.26458333,0,0,0.26458333,-1065.1484,-291.52789)"
           inkscape:connector-curvature="0"
           d="m 7250.3535,-7748.9609 c -8.3368,0 -15.2032,2.902 -20.5976,8.705 -5.3127,5.7215 -8.5413,14.2229 -9.6856,25.502 h 60.6875 c -0.8173,-11.4427 -3.9239,-19.9854 -9.3183,-25.625 -5.3127,-5.7215 -12.3405,-8.582 -21.086,-8.582 z m 1.1035,-23.293 c 13.0774,0 24.2742,2.778 33.5918,8.3359 9.3994,5.4761 16.4291,12.5884 21.0879,21.334 4.6588,8.7453 6.9863,17.6539 6.9863,26.7266 0,8.4185 -2.4101,13.8942 -7.2324,16.4277 -4.8222,2.4522 -11.6061,3.6777 -20.3515,3.6777 h -65.4688 c 0.082,7.6012 1.5946,14.3044 4.5371,20.1075 3.0241,5.8031 6.9866,10.1747 11.8906,13.1172 4.9858,2.9422 10.4632,4.414 16.4297,4.414 4.005,0 7.6408,-0.4506 10.9102,-1.3496 3.351,-0.9807 6.5796,-2.4503 9.6855,-4.4121 3.1059,-2.0432 5.9666,-4.2094 8.5821,-6.498 2.6155,-2.2884 6.0074,-5.395 10.1757,-9.3184 1.7165,-1.471 4.1699,-2.207 7.3575,-2.207 3.4328,0 6.2108,0.9406 8.3359,2.8203 2.1251,1.8799 3.1875,4.5359 3.1875,7.9687 0,3.0242 -1.1844,6.5794 -3.5547,10.666 -2.3702,4.0051 -5.9668,7.8889 -10.789,11.6485 -4.7406,3.678 -10.7473,6.7412 -18.0215,9.1933 -7.1926,2.4519 -15.4893,3.6797 -24.8887,3.6797 -21.4959,0 -38.2095,-6.1306 -50.1426,-18.3906 -11.9331,-12.26 -17.9004,-28.8931 -17.9004,-49.8984 0,-9.8898 1.4717,-19.0444 4.4141,-27.4629 2.9424,-8.5004 7.2334,-15.774 12.873,-21.8223 5.6396,-6.0482 12.5867,-10.6659 20.8418,-13.8535 8.2551,-3.2693 17.4097,-4.9043 27.4629,-4.9043 z m -2.9218,-28.8262 a 95.753216,95.753216 0 0 0 -68.3946,29.7285 95.753216,95.753216 0 0 0 3.334,135.375 95.753216,95.753216 0 0 0 135.3731,-3.3339 95.753216,95.753216 0 0 0 -3.3321,-135.375 95.753216,95.753216 0 0 0 -66.9804,-26.3946 z"
           style="fill:#dc2328;fill-opacity:1;stroke:none;stroke-width:101.21562195;stroke-miterlimit:4;stroke-dasharray:none;stroke-opacity:1"
           id="path4514" />
      </g>
    </g>
  </g>
</svg>
